<?xml version="1.0" encoding="UTF-8"?>
<svg width="137.33" height="34.222" version="1.1" viewBox="0 0 137.33333 34.222267" xml:space="preserve" xmlns="http://www.w3.org/2000/svg" xmlns:cc="http://creativecommons.org/ns#" xmlns:dc="http://purl.org/dc/elements/1.1/" xmlns:rdf="http://www.w3.org/1999/02/22-rdf-syntax-ns#"><metadata><rdf:RDF><cc:Work rdf:about=""><dc:format>image/svg+xml</dc:format><dc:type rdf:resource="http://purl.org/dc/dcmitype/StillImage"/><dc:title/></cc:Work></rdf:RDF></metadata><defs><clipPath id="a"><path d="M 0,25.667 H 103 V 0 H 0 Z"/></clipPath></defs><g transform="matrix(1.3333 0 0 -1.3333 0 34.222)"><g clip-path="url(#a)"><g transform="translate(32.627 10.101)"><path d="m0 0c-0.167 0.668-0.411 1.202-0.73 1.602-0.319 0.399-0.742 0.72-1.267 0.965s-1.078 0.367-1.656 0.367c-0.956 0-1.777-0.307-2.463-0.921-0.502-0.448-0.881-1.118-1.137-2.013zm0-2.62 1.055-0.555c-0.346-0.679-0.745-1.228-1.199-1.645s-0.964-0.735-1.531-0.952c-0.567-0.218-1.209-0.327-1.925-0.327-1.587 0-2.828 0.52-3.723 1.561-0.896 1.04-1.343 2.216-1.343 3.528 0 1.234 0.378 2.334 1.137 3.3 0.96 1.229 2.246 1.842 3.858 1.842 1.659 0 2.984-0.629 3.974-1.887 0.704-0.889 1.062-1.997 1.074-3.327h-8.755c0.024-1.13 0.385-2.057 1.083-2.779 0.698-0.723 1.561-1.084 2.588-1.084 0.495 0 0.978 0.086 1.446 0.258 0.469 0.172 0.867 0.401 1.195 0.686 0.329 0.285 0.684 0.745 1.066 1.381" fill="#90d12a"/></g><g transform="translate(40.772 12.918)"><path d="m0 0-0.805-0.832c-0.67 0.65-1.324 0.976-1.964 0.976-0.406 0-0.754-0.135-1.044-0.403s-0.435-0.582-0.435-0.939c0-0.317 0.12-0.617 0.358-0.904 0.24-0.292 0.742-0.634 1.506-1.028 0.932-0.483 1.566-0.948 1.9-1.395 0.329-0.454 0.493-0.963 0.493-1.53 0-0.799-0.28-1.475-0.842-2.03s-1.263-0.831-2.105-0.831c-0.561 0-1.097 0.122-1.607 0.366-0.511 0.244-0.934 0.581-1.268 1.011l0.787 0.894c0.639-0.721 1.318-1.082 2.035-1.082 0.502 0 0.929 0.161 1.282 0.483 0.352 0.322 0.529 0.7 0.529 1.136 0 0.358-0.117 0.676-0.35 0.957-0.233 0.274-0.759 0.62-1.577 1.037-0.879 0.453-1.476 0.9-1.793 1.342-0.316 0.441-0.475 0.945-0.475 1.511 0 0.74 0.252 1.354 0.757 1.842 0.505 0.489 1.142 0.733 1.913 0.733 0.895 0 1.797-0.437 2.705-1.314" fill="#90d12a"/></g><g transform="translate(42.532 17.738)"><path d="m0 0h1.252v-5.5c0.507 0.668 1.064 1.167 1.673 1.498 0.608 0.331 1.266 0.496 1.976 0.496 0.727 0 1.373-0.184 1.936-0.554 0.564-0.37 0.98-0.866 1.248-1.489 0.269-0.623 0.402-1.599 0.402-2.929v-5.008h-1.252v4.641c0 1.121-0.044 1.869-0.134 2.245-0.155 0.644-0.436 1.128-0.845 1.454-0.408 0.325-0.944 0.487-1.605 0.487-0.757 0-1.436-0.25-2.035-0.751s-0.994-1.121-1.185-1.861c-0.119-0.477-0.179-1.359-0.179-2.647v-3.568h-1.252z" fill="#90d12a"/></g><g transform="translate(57.846 13.008)"><path d="m0 0c-1.041 0-1.936-0.385-2.684-1.154s-1.121-1.7-1.121-2.79c0-0.703 0.17-1.36 0.512-1.968 0.34-0.608 0.801-1.077 1.381-1.408s1.219-0.496 1.912-0.496 1.332 0.165 1.912 0.496 1.041 0.8 1.381 1.408c0.342 0.608 0.512 1.265 0.512 1.968 0 1.09-0.375 2.021-1.125 2.79-0.752 0.769-1.645 1.154-2.68 1.154m4e-3 1.225c1.5 0 2.742-0.542 3.728-1.627 0.895-0.991 1.344-2.162 1.344-3.515 0-1.359-0.474-2.548-1.42-3.564-0.947-1.017-2.164-1.525-3.652-1.525-1.492 0-2.713 0.508-3.66 1.525-0.946 1.016-1.419 2.205-1.419 3.564 0 1.347 0.448 2.516 1.343 3.506 0.986 1.091 2.232 1.636 3.736 1.636" fill="#90d12a"/></g><g transform="translate(69.807 13.025)"><path d="m0 0c-1.083 0-1.995-0.378-2.735-1.135-0.741-0.756-1.111-1.697-1.111-2.822 0-0.739 0.165-1.403 0.495-1.992 0.33-0.59 0.803-1.058 1.418-1.403 0.617-0.345 1.266-0.518 1.951-0.518 0.671 0 1.303 0.174 1.895 0.522 0.592 0.349 1.064 0.835 1.415 1.461 0.351 0.625 0.526 1.281 0.526 1.965 0 0.692-0.174 1.346-0.522 1.966-0.348 0.619-0.816 1.1-1.405 1.442-0.589 0.343-1.232 0.514-1.927 0.514m-5.009 0.957h1.252v-1.789c0.494 0.68 1.064 1.189 1.707 1.529s1.361 0.51 2.153 0.51c1.381 0 2.564-0.497 3.546-1.493 0.984-0.996 1.475-2.194 1.475-3.596 0-1.43-0.487-2.645-1.461-3.643-0.974-0.999-2.148-1.498-3.524-1.498-0.775 0-1.487 0.16-2.136 0.482s-1.235 0.802-1.76 1.44v-5.232h-1.252z" fill="#90d12a"/></g><path d="m76.629 13.982h1.252v-9.73h-1.252zm0.622 4.007c0.285 0 0.528-0.101 0.73-0.304 0.201-0.203 0.303-0.447 0.303-0.734 0-0.28-0.102-0.521-0.303-0.723-0.202-0.204-0.445-0.305-0.73-0.305-0.28 0-0.52 0.101-0.722 0.305-0.201 0.202-0.303 0.443-0.303 0.723 0 0.287 0.102 0.531 0.303 0.734 0.202 0.203 0.442 0.304 0.722 0.304" fill="#5f9a3c"/><g transform="translate(84.918 12.918)"><path d="m0 0-0.805-0.832c-0.67 0.65-1.324 0.976-1.964 0.976-0.406 0-0.754-0.135-1.044-0.403-0.291-0.268-0.435-0.582-0.435-0.939 0-0.317 0.119-0.617 0.358-0.904 0.24-0.292 0.742-0.634 1.506-1.028 0.932-0.483 1.566-0.948 1.901-1.395 0.328-0.454 0.492-0.963 0.492-1.53 0-0.799-0.28-1.475-0.842-2.03s-1.263-0.831-2.105-0.831c-0.561 0-1.097 0.122-1.608 0.366s-0.933 0.581-1.267 1.011l0.787 0.894c0.639-0.721 1.318-1.082 2.035-1.082 0.502 0 0.928 0.161 1.282 0.483 0.353 0.322 0.528 0.7 0.528 1.136 0 0.358-0.116 0.676-0.349 0.957-0.233 0.274-0.759 0.62-1.577 1.037-0.878 0.453-1.476 0.9-1.792 1.342-0.318 0.441-0.476 0.945-0.476 1.511 0 0.74 0.252 1.354 0.757 1.842 0.505 0.489 1.142 0.733 1.913 0.733 0.895 0 1.798-0.437 2.705-1.314m-2.146 2.826h-1.244l-2.593 2.299h1.619l1.574-1.359 1.639 1.359h1.661z" fill="#5f9a3c"/></g><g transform="translate(87.768 17.596)"><path d="m0 0h1.252v-3.613h1.985v-1.082h-1.985v-8.649h-1.252v8.649h-1.708v1.082h1.708z" fill="#5f9a3c"/></g><g transform="translate(97.595 15.744)"><path d="m0 0h-1.243l-2.594 2.299h1.619l1.574-1.36 1.639 1.36h1.661zm3.022-5.644c-0.167 0.668-0.41 1.203-0.729 1.602s-0.741 0.721-1.267 0.966c-0.525 0.244-1.078 0.366-1.657 0.366-0.955 0-1.775-0.307-2.462-0.921-0.502-0.447-0.881-1.118-1.137-2.013zm0-2.62 1.056-0.554c-0.346-0.68-0.746-1.229-1.199-1.646-0.454-0.417-0.964-0.734-1.531-0.952s-1.208-0.326-1.925-0.326c-1.587 0-2.828 0.519-3.724 1.56-0.894 1.04-1.343 2.216-1.343 3.529 0 1.233 0.379 2.334 1.137 3.299 0.961 1.229 2.247 1.842 3.859 1.842 1.659 0 2.983-0.629 3.974-1.886 0.704-0.889 1.063-1.998 1.074-3.328h-8.755c0.023-1.129 0.384-2.056 1.083-2.779s1.561-1.084 2.587-1.084c0.497 0 0.978 0.086 1.447 0.259 0.468 0.172 0.867 0.4 1.195 0.685 0.329 0.286 0.684 0.746 1.065 1.381" fill="#5f9a3c"/></g><path d="m0.347 14.409h10.167v-10.168h-10.167z" fill="#90d12a"/><path d="m11.183 14.409h10.167v-10.168h-10.167z" fill="#4fb4e9"/><path d="m5.698 25.245h10.167v-10.168h-10.167z" fill="#f79528"/></g></g></svg>
