<svg id="Vrstva_1" data-name="Vrstva 1" xmlns="http://www.w3.org/2000/svg" viewBox="0 0 129.88 27.46">
  <title>eshopiste-icon_01</title>
  <g>
    <path d="M4.88,4.36A4.53,4.53,0,0,1,9.62,8.72c0,1.06-.63,1.44-1.77,1.44H3a2.2,2.2,0,0,0,2.36,1.65A3.84,3.84,0,0,0,7,11.43a1,1,0,0,1,.48-.12,1.12,1.12,0,0,1,1.11,1.14,1.14,1.14,0,0,1-.67,1A6.65,6.65,0,0,1,5,14.1,4.75,4.75,0,0,1-.06,9.22,4.79,4.79,0,0,1,4.88,4.36ZM3,8.24H6.8A1.79,1.79,0,0,0,4.88,6.65,1.84,1.84,0,0,0,3,8.24Z" style="fill: #1d1d1b"/>
    <path d="M10.56,12.22a1.19,1.19,0,0,1,1.73-1.06,6.08,6.08,0,0,0,2.5.71c.88,0,1.25-.29,1.25-.69s-.64-.65-1.6-.81c-1.57-.27-3.8-.59-3.8-2.95,0-1.64,1.4-3.06,4-3.06a6.42,6.42,0,0,1,3,.73,1.1,1.1,0,0,1-.48,2.09,1.14,1.14,0,0,1-.52-.13,4.31,4.31,0,0,0-2-.52c-.69,0-1.17.23-1.17.64s.5.57,1.48.74c1.58.27,3.92.66,3.92,3.12,0,1.76-1.56,3.07-4.23,3.07a7.35,7.35,0,0,1-3.42-.83A1.22,1.22,0,0,1,10.56,12.22Z" style="fill: #1d1d1b"/>
    <path d="M26.68,12.56V8.47c0-1.13-.6-1.5-1.54-1.5a2.25,2.25,0,0,0-1.78.91v4.68A1.5,1.5,0,0,1,21.88,14a1.48,1.48,0,0,1-1.48-1.48V2.36A1.48,1.48,0,0,1,21.88.88a1.5,1.5,0,0,1,1.48,1.48V5.72a4.18,4.18,0,0,1,3.2-1.36c2.12,0,3.08,1.19,3.08,2.9v5.3A1.5,1.5,0,0,1,28.16,14,1.48,1.48,0,0,1,26.68,12.56Z" style="fill: #1d1d1b"/>
    <path d="M31.17,9.22a4.79,4.79,0,0,1,5.06-4.86A4.78,4.78,0,0,1,41.3,9.22a4.79,4.79,0,0,1-5.07,4.88A4.81,4.81,0,0,1,31.17,9.22Zm7.09,0a2,2,0,1,0-4,0,2,2,0,1,0,4,0Z" style="fill: #1d1d1b"/>
    <path d="M52.63,9.22c0,3.15-1.75,4.88-4.07,4.88a3.41,3.41,0,0,1-2.75-1.31V16.1a1.48,1.48,0,0,1-1.48,1.48,1.5,1.5,0,0,1-1.48-1.48V5.9a1.5,1.5,0,0,1,1.48-1.54,1.58,1.58,0,0,1,1.52,1.27,3.39,3.39,0,0,1,2.71-1.27C50.88,4.36,52.63,6.09,52.63,9.22Zm-3,0a2.06,2.06,0,0,0-2-2.25,2.39,2.39,0,0,0-1.77.85v2.82a2.46,2.46,0,0,0,1.77.85A2.06,2.06,0,0,0,49.62,9.22Z" style="fill: #1d1d1b"/>
    <path d="M54,1.69a1.69,1.69,0,1,1,3.38,0,1.69,1.69,0,1,1-3.38,0Zm.21,10.87V5.9a1.48,1.48,0,1,1,3,0v6.66a1.48,1.48,0,1,1-3,0Z" style="fill: #1d1d1b"/>
    <path d="M58.78,12.22A1.19,1.19,0,0,1,60,11a1.23,1.23,0,0,1,.54.13,6,6,0,0,0,2.5.71c.88,0,1.24-.29,1.24-.69s-.63-.65-1.59-.81c-1.58-.27-3.8-.59-3.8-2.95,0-1.64,1.4-3.06,4-3.06a6.42,6.42,0,0,1,3,.73,1.1,1.1,0,1,1-1,2,4.34,4.34,0,0,0-2-.52c-.69,0-1.17.23-1.17.64s.5.57,1.48.74c1.57.27,3.92.66,3.92,3.12,0,1.76-1.56,3.07-4.23,3.07a7.35,7.35,0,0,1-3.42-.83A1.22,1.22,0,0,1,58.78,12.22Z" style="fill: #1d1d1b"/>
    <path d="M74.26,12.76A1.22,1.22,0,0,1,73.32,14a4.64,4.64,0,0,1-1.21.15c-1.88,0-2.9-.94-2.9-2.73V7.17h-.42A1.31,1.31,0,0,1,67.5,5.88a1.29,1.29,0,0,1,1.29-1.29h.42V3.36a1.47,1.47,0,1,1,2.94,0V4.59h.77a1.29,1.29,0,0,1,1.29,1.29,1.31,1.31,0,0,1-1.29,1.29h-.77v3.38a.84.84,0,0,0,.77.94h.29A1.19,1.19,0,0,1,74.26,12.76Z" style="fill: #1d1d1b"/>
    <path d="M79.83,4.36a4.53,4.53,0,0,1,4.75,4.36c0,1.06-.64,1.44-1.77,1.44H78a2.2,2.2,0,0,0,2.36,1.65A3.84,3.84,0,0,0,82,11.43a.92.92,0,0,1,.48-.12,1.12,1.12,0,0,1,1.11,1.14,1.14,1.14,0,0,1-.67,1,6.65,6.65,0,0,1-2.9.63A4.75,4.75,0,0,1,74.9,9.22,4.78,4.78,0,0,1,79.83,4.36Zm-1.9,3.88h3.82a1.77,1.77,0,0,0-1.92-1.59A1.84,1.84,0,0,0,77.93,8.24Z" style="fill: #1d1d1b"/>
    <path d="M87.5,10.49a1.81,1.81,0,1,1-1.81,1.8A1.82,1.82,0,0,1,87.5,10.49Z" style="fill: #1d1d1b"/>
    <path d="M95.61,4.36a4.72,4.72,0,0,1,2.67.73A1.28,1.28,0,0,1,99,6.21a1.33,1.33,0,0,1-1.33,1.32,1.28,1.28,0,0,1-.69-.19A1.94,1.94,0,0,0,95.74,7a2.1,2.1,0,0,0-2.17,2.25,2.12,2.12,0,0,0,2.17,2.27,1.94,1.94,0,0,0,1.19-.37,1.43,1.43,0,0,1,.67-.21,1.33,1.33,0,0,1,1.33,1.35,1.26,1.26,0,0,1-.65,1.11,4.72,4.72,0,0,1-2.67.73,4.79,4.79,0,0,1-5.08-4.88A4.78,4.78,0,0,1,95.61,4.36Z" style="fill: #1d1d1b"/>
    <path d="M100,12.41a1.53,1.53,0,0,1,.32-.92l3.58-4.32h-2.62A1.3,1.3,0,0,1,100,5.88a1.28,1.28,0,0,1,1.28-1.29h5.4A1.38,1.38,0,0,1,108.05,6a1.46,1.46,0,0,1-.32.91l-3.63,4.43h2.74a1.28,1.28,0,0,1,1.29,1.27,1.29,1.29,0,0,1-1.29,1.29h-5.41A1.45,1.45,0,0,1,100,12.41Z" style="fill: #1d1d1b"/>
    <path d="M.06,25.57V20.63a.33.33,0,0,1,.37-.36H1.77A1.53,1.53,0,0,1,3.32,22a1.53,1.53,0,0,1-1.55,1.68h-1v1.94a.34.34,0,0,1-.34.34A.34.34,0,0,1,.06,25.57ZM1.7,20.86h-1V23h1c.58,0,.93-.45.93-1.09S2.28,20.86,1.7,20.86Z" style="fill: #1d1d1b"/>
    <path d="M5.92,22.05a.31.31,0,0,1-.27.29,1.22,1.22,0,0,0-.93.65v2.62a.29.29,0,0,1-.29.3.3.3,0,0,1-.31-.3V22.08a.31.31,0,0,1,.3-.3.3.3,0,0,1,.3.3v.39a1.5,1.5,0,0,1,.72-.65.39.39,0,0,1,.21-.06A.27.27,0,0,1,5.92,22.05Z" style="fill: #1d1d1b"/>
    <path d="M6.37,23.84c0-1.14.57-2.12,1.65-2.12s1.65,1,1.65,2.12S9.11,26,8,26,6.37,25,6.37,23.84Zm2.67,0c0-.81-.31-1.59-1-1.59S7,23,7,23.84s.32,1.6,1,1.6S9,24.67,9,23.84Z" style="fill: #1d1d1b"/>
    <path d="M13.51,20.54v5.07a.31.31,0,0,1-.61,0V25.3a1.26,1.26,0,0,1-1.07.68c-.91,0-1.45-.85-1.45-2.13s.54-2.13,1.45-2.13a1.21,1.21,0,0,1,1.07.69V20.54a.31.31,0,0,1,.61,0Zm-.61,4.24V22.92a1.08,1.08,0,0,0-.92-.67c-.66,0-1,.72-1,1.6s.31,1.59,1,1.59A1.07,1.07,0,0,0,12.9,24.78Z" style="fill: #1d1d1b"/>
    <path d="M16.06,21.72c1.07,0,1.61,1,1.61,2a.33.33,0,0,1-.37.32H15c0,.82.45,1.43,1.17,1.43a1.17,1.17,0,0,0,.83-.35.23.23,0,0,1,.16-.06.24.24,0,0,1,.16.42,1.7,1.7,0,0,1-1.2.5c-1.08,0-1.74-.89-1.74-2.14S15,21.72,16.06,21.72ZM15,23.6h2c0-.62-.28-1.38-1-1.38S15.05,23,15,23.6Z" style="fill: #1d1d1b"/>
    <path d="M18,27.51a.26.26,0,0,1-.26-.27A.25.25,0,0,1,18,27l.11,0c.26,0,.45-.16.45-.56V22.08a.3.3,0,1,1,.59,0v4.36c0,.71-.35,1.08-1,1.08Zm.4-6.85a.42.42,0,0,1,.41-.42.42.42,0,0,1,0,.83A.42.42,0,0,1,18.43,20.66Z" style="fill: #1d1d1b"/>
    <path d="M24.75,23v2.57a.3.3,0,0,1-.6,0v-.18a1.26,1.26,0,0,1-2.3-.81,1.22,1.22,0,0,1,1.23-1.33,1.28,1.28,0,0,1,1.07.52V23.1a.77.77,0,0,0-.84-.86,1.23,1.23,0,0,0-.84.32.2.2,0,0,1-.15.06.25.25,0,0,1-.25-.25.24.24,0,0,1,.1-.19,1.83,1.83,0,0,1,1.23-.46A1.2,1.2,0,0,1,24.75,23Zm-.6,2v-.78a1,1,0,0,0-.88-.52.91.91,0,0,0,0,1.81A1,1,0,0,0,24.15,25Z" style="fill: #1d1d1b"/>
    <path d="M27.54,20.57a.41.41,0,0,1,.41-.41A.41.41,0,1,1,28,21,.41.41,0,0,1,27.54,20.57Zm.12,5V22.08a.3.3,0,1,1,.59,0v3.53a.3.3,0,1,1-.59,0Z" style="fill: #1d1d1b"/>
    <path d="M32.16,22.82v2.79a.29.29,0,0,1-.3.3.3.3,0,0,1-.3-.3V23c0-.53-.25-.73-.65-.73a1.18,1.18,0,0,0-.95.65v2.71a.29.29,0,0,1-.29.3.3.3,0,0,1-.31-.3V22.08a.31.31,0,0,1,.3-.3.3.3,0,0,1,.3.3v.32a1.54,1.54,0,0,1,1.18-.68C31.83,21.72,32.16,22.08,32.16,22.82Z" style="fill: #1d1d1b"/>
    <path d="M36,22.09a.53.53,0,0,1,0,.12l-1.12,3.4a.43.43,0,0,1-.41.3.45.45,0,0,1-.42-.3L32.9,22.2a.36.36,0,0,1,0-.11.3.3,0,0,1,.59-.09l1,3.15,1-3.16a.31.31,0,0,1,.6.1Z" style="fill: #1d1d1b"/>
    <path d="M38.15,21.72c1.06,0,1.6,1,1.6,2a.32.32,0,0,1-.36.32H37.12c0,.82.45,1.43,1.17,1.43a1.15,1.15,0,0,0,.82-.35.25.25,0,0,1,.41.19.26.26,0,0,1-.09.17,1.67,1.67,0,0,1-1.19.5c-1.09,0-1.74-.89-1.74-2.14S37.12,21.72,38.15,21.72Zm-1,1.88h2c0-.62-.28-1.38-1-1.38S37.14,23,37.12,23.6Z" style="fill: #1d1d1b"/>
    <path d="M40.36,25.35a.25.25,0,0,1,.26-.26.19.19,0,0,1,.16.06,1.38,1.38,0,0,0,.89.34c.47,0,.78-.25.78-.64s-.4-.61-.85-.8-1.18-.46-1.18-1.24a1.15,1.15,0,0,1,1.3-1.09,1.64,1.64,0,0,1,1.09.38.27.27,0,0,1,.09.2.24.24,0,0,1-.24.24.27.27,0,0,1-.15-.05,1.19,1.19,0,0,0-.78-.29c-.45,0-.73.25-.73.57s.38.56.81.74S43,24,43,24.82A1.2,1.2,0,0,1,41.68,26a1.78,1.78,0,0,1-1.22-.43A.25.25,0,0,1,40.36,25.35Z" style="fill: #1d1d1b"/>
    <path d="M45.45,25.62a.25.25,0,0,1-.14.23.91.91,0,0,1-.49.13c-.56,0-.82-.31-.82-.92V22.35h-.31a.27.27,0,0,1-.26-.27.26.26,0,0,1,.26-.26H44V21a.31.31,0,1,1,.61,0v.84h.45a.26.26,0,0,1,.27.26.27.27,0,0,1-.27.27h-.45V25c0,.31.09.49.33.49s.19-.08.27-.08A.24.24,0,0,1,45.45,25.62Z" style="fill: #1d1d1b"/>
    <path d="M46,20.57a.41.41,0,0,1,.41-.41.41.41,0,1,1,0,.82A.41.41,0,0,1,46,20.57Zm.12,5V22.08a.3.3,0,1,1,.59,0v3.53a.3.3,0,1,1-.59,0Z" style="fill: #1d1d1b"/>
    <path d="M49.28,21.72a1.41,1.41,0,0,1,1,.36.3.3,0,0,1,.1.22.26.26,0,0,1-.27.26A.35.35,0,0,1,50,22.5a.81.81,0,0,0-.62-.25c-.72,0-1.1.73-1.1,1.59s.38,1.6,1.1,1.6a.81.81,0,0,0,.62-.25.25.25,0,0,1,.16-.05.25.25,0,0,1,.27.26.27.27,0,0,1-.1.21,1.38,1.38,0,0,1-1,.37c-1,0-1.68-.94-1.68-2.14S48.24,21.72,49.28,21.72Z" style="fill: #1d1d1b"/>
    <path d="M52.66,21.72c1.07,0,1.61,1,1.61,2a.33.33,0,0,1-.37.32H51.63c0,.82.45,1.43,1.17,1.43a1.17,1.17,0,0,0,.83-.35.23.23,0,0,1,.16-.06.24.24,0,0,1,.16.42,1.68,1.68,0,0,1-1.2.5C51.67,26,51,25.09,51,23.84S51.63,21.72,52.66,21.72Zm-1,1.88h2c0-.62-.28-1.38-1-1.38S51.65,23,51.63,23.6Z" style="fill: #1d1d1b"/>
    <path d="M59.88,20.54v5.07a.29.29,0,0,1-.3.3.3.3,0,0,1-.3-.3V25.3a1.26,1.26,0,0,1-1.07.68c-.91,0-1.46-.85-1.46-2.13s.54-2.13,1.46-2.13a1.23,1.23,0,0,1,1.07.69V20.54a.3.3,0,0,1,.3-.3A.29.29,0,0,1,59.88,20.54Zm-.6,4.24V22.92a1.09,1.09,0,0,0-.92-.67c-.67,0-1,.72-1,1.6s.31,1.59,1,1.59A1.08,1.08,0,0,0,59.28,24.78Z" style="fill: #1d1d1b"/>
    <path d="M60.79,23.84c0-1.14.57-2.12,1.65-2.12s1.65,1,1.65,2.12S63.53,26,62.44,26,60.79,25,60.79,23.84Zm2.67,0c0-.81-.31-1.59-1-1.59s-1,.78-1,1.59.32,1.6,1,1.6S63.46,24.67,63.46,23.84Z" style="fill: #1d1d1b"/>
    <path d="M66.58,25.55a.24.24,0,0,1,0-.16l1.74-3H66.85a.27.27,0,0,1-.27-.27.26.26,0,0,1,.27-.26h2a.31.31,0,0,1,.31.31.22.22,0,0,1,0,.16l-1.74,3.06h1.56a.27.27,0,0,1,.27.26.28.28,0,0,1-.27.27h-2A.32.32,0,0,1,66.58,25.55Z" style="fill: #1d1d1b"/>
    <path d="M72.75,23v2.57a.31.31,0,0,1-.61,0v-.18a1.23,1.23,0,0,1-1.06.55,1.25,1.25,0,0,1-1.23-1.36,1.22,1.22,0,0,1,1.23-1.33,1.25,1.25,0,0,1,1.06.52V23.1a.77.77,0,0,0-.83-.86,1.23,1.23,0,0,0-.84.32.2.2,0,0,1-.15.06.25.25,0,0,1-.25-.25.24.24,0,0,1,.1-.19,1.83,1.83,0,0,1,1.23-.46A1.2,1.2,0,0,1,72.75,23Zm-.61,2v-.78a1,1,0,0,0-.87-.52.91.91,0,0,0,0,1.81A1,1,0,0,0,72.14,25Z" style="fill: #1d1d1b"/>
    <path d="M76.56,22.09a.5.5,0,0,1,0,.12l-1.12,3.4a.43.43,0,0,1-.41.3.45.45,0,0,1-.42-.3L73.48,22.2a.36.36,0,0,1,0-.11.3.3,0,0,1,.59-.09l1,3.15L76,22a.32.32,0,0,1,.29-.21A.31.31,0,0,1,76.56,22.09Z" style="fill: #1d1d1b"/>
    <path d="M78.72,21.72c1.07,0,1.61,1,1.61,2A.32.32,0,0,1,80,24H77.7c0,.82.44,1.43,1.17,1.43a1.15,1.15,0,0,0,.82-.35.23.23,0,0,1,.16-.06.24.24,0,0,1,.16.42,1.67,1.67,0,0,1-1.19.5c-1.09,0-1.74-.89-1.74-2.14S77.7,21.72,78.72,21.72Zm-1,1.88h2c0-.62-.28-1.38-1-1.38S77.71,23,77.7,23.6Z" style="fill: #1d1d1b"/>
    <path d="M84.14,20.54v5.07a.31.31,0,0,1-.61,0V25.3a1.25,1.25,0,0,1-1.07.68c-.91,0-1.45-.85-1.45-2.13s.54-2.13,1.45-2.13a1.2,1.2,0,0,1,1.07.69V20.54a.31.31,0,0,1,.61,0Zm-.61,4.24V22.92a1.08,1.08,0,0,0-.92-.67c-.66,0-1,.72-1,1.6s.31,1.59,1,1.59A1.07,1.07,0,0,0,83.53,24.78Z" style="fill: #1d1d1b"/>
    <path d="M86.69,21.72c1.07,0,1.61,1,1.61,2a.32.32,0,0,1-.36.32H85.67c0,.82.44,1.43,1.16,1.43a1.17,1.17,0,0,0,.83-.35.23.23,0,0,1,.16-.06.24.24,0,0,1,.16.42,1.68,1.68,0,0,1-1.2.5C85.7,26,85,25.09,85,23.84S85.67,21.72,86.69,21.72Zm-1,1.88h2c0-.62-.28-1.38-1-1.38S85.68,23,85.67,23.6Z" style="fill: #1d1d1b"/>
    <path d="M92,22.82v2.79a.3.3,0,0,1-.31.3.31.31,0,0,1-.3-.3V23c0-.53-.24-.73-.64-.73a1.2,1.2,0,0,0-1,.65v2.71a.3.3,0,1,1-.59,0V22.08a.3.3,0,1,1,.59,0v.32A1.54,1.54,0,0,1,91,21.72C91.64,21.72,92,22.08,92,22.82Z" style="fill: #1d1d1b"/>
    <path d="M93.14,27h.11c.23,0,.37-.1.47-.41l.22-.62-1.23-3.77a.43.43,0,0,1,0-.11.31.31,0,0,1,.3-.3.33.33,0,0,1,.3.22l1,3.15,1-3.16a.3.3,0,0,1,.59.09.43.43,0,0,1,0,.11l-1.49,4.54a1,1,0,0,1-1,.79h-.14a.28.28,0,0,1-.28-.27A.27.27,0,0,1,93.14,27Zm1.15-5.91a.18.18,0,0,1-.18-.17.21.21,0,0,1,0-.11l.73-.92a.23.23,0,0,1,.17-.08.21.21,0,0,1,.21.21.2.2,0,0,1-.05.15l-.8.86A.16.16,0,0,1,94.29,21.07Z" style="fill: #1d1d1b"/>
    <path d="M98,21.72a1.46,1.46,0,0,1,1,.36.35.35,0,0,1,.1.22.27.27,0,0,1-.27.26.28.28,0,0,1-.16-.06.84.84,0,0,0-.63-.25c-.72,0-1.1.73-1.1,1.59s.38,1.6,1.1,1.6a.84.84,0,0,0,.63-.25.22.22,0,0,1,.16-.05.26.26,0,0,1,.27.26.3.3,0,0,1-.1.21A1.42,1.42,0,0,1,98,26c-1,0-1.68-.94-1.68-2.14S97,21.72,98,21.72Z" style="fill: #1d1d1b"/>
    <path d="M102.13,25.61V23c0-.54-.25-.73-.66-.73a1.2,1.2,0,0,0-1,.65v2.71a.3.3,0,1,1-.59,0V20.54a.3.3,0,1,1,.59,0V22.4a1.52,1.52,0,0,1,1.19-.68c.69,0,1,.34,1,1.08v2.81a.3.3,0,0,1-.31.3A.29.29,0,0,1,102.13,25.61Z" style="fill: #1d1d1b"/>
    <path d="M107.09,21.72c1.07,0,1.6,1,1.6,2a.32.32,0,0,1-.36.32h-2.27c0,.82.45,1.43,1.17,1.43a1.17,1.17,0,0,0,.83-.35.22.22,0,0,1,.15-.06.24.24,0,0,1,.17.42,1.7,1.7,0,0,1-1.2.5c-1.08,0-1.74-.89-1.74-2.14S106.06,21.72,107.09,21.72Zm-1,1.88h2c0-.62-.28-1.38-1-1.38S106.08,23,106.06,23.6Z" style="fill: #1d1d1b"/>
    <path d="M109.23,23.84a.28.28,0,0,1,.27-.27h1.29a.28.28,0,0,1,.27.27.27.27,0,0,1-.27.27H109.5A.28.28,0,0,1,109.23,23.84Z" style="fill: #1d1d1b"/>
    <path d="M111.54,25.35a.26.26,0,0,1,.26-.26.2.2,0,0,1,.17.06,1.37,1.37,0,0,0,.88.34c.47,0,.79-.25.79-.64s-.41-.61-.85-.8-1.18-.46-1.18-1.24a1.15,1.15,0,0,1,1.29-1.09,1.67,1.67,0,0,1,1.1.38.27.27,0,0,1,.09.2.24.24,0,0,1-.24.24.33.33,0,0,1-.16-.05,1.17,1.17,0,0,0-.78-.29c-.44,0-.72.25-.72.57s.38.56.81.74,1.22.48,1.22,1.31A1.21,1.21,0,0,1,112.86,26a1.8,1.8,0,0,1-1.22-.43A.25.25,0,0,1,111.54,25.35Z" style="fill: #1d1d1b"/>
    <path d="M117.28,25.61V23c0-.54-.26-.73-.66-.73a1.17,1.17,0,0,0-1,.65v2.71a.3.3,0,0,1-.29.3.3.3,0,0,1-.31-.3V20.54a.3.3,0,0,1,.31-.3.3.3,0,0,1,.29.3V22.4a1.5,1.5,0,0,1,1.18-.68c.69,0,1,.34,1,1.08v2.81a.3.3,0,1,1-.59,0Z" style="fill: #1d1d1b"/>
    <path d="M118.78,23.84c0-1.14.57-2.12,1.65-2.12s1.65,1,1.65,2.12S121.52,26,120.43,26,118.78,25,118.78,23.84Zm2.67,0c0-.81-.31-1.59-1-1.59s-1,.78-1,1.59.32,1.6,1,1.6S121.45,24.67,121.45,23.84Z" style="fill: #1d1d1b"/>
    <path d="M126.11,23.84c0,1.27-.54,2.14-1.46,2.14a1.19,1.19,0,0,1-1.06-.71v1.88a.31.31,0,0,1-.3.31.3.3,0,0,1-.3-.31V22.08a.3.3,0,0,1,.3-.3.31.31,0,0,1,.3.3v.32a1.24,1.24,0,0,1,1.06-.68C125.57,21.72,126.11,22.56,126.11,23.84Zm-.63,0c0-.87-.31-1.59-1-1.59a1.1,1.1,0,0,0-.91.66v1.86a1.11,1.11,0,0,0,.91.67C125.17,25.44,125.48,24.73,125.48,23.84Z" style="fill: #1d1d1b"/>
    <path d="M129.81,22.08v3.53a.29.29,0,0,1-.3.3.3.3,0,0,1-.3-.3v-.3A1.46,1.46,0,0,1,128,26c-.69,0-1-.35-1-1.09V22.08a.3.3,0,1,1,.59,0v2.64c0,.53.25.72.65.72a1.15,1.15,0,0,0,1-.63V22.08a.31.31,0,0,1,.3-.3A.3.3,0,0,1,129.81,22.08Zm-2.16-1.71a.78.78,0,0,1,.77-.77.77.77,0,0,1,0,1.54A.78.78,0,0,1,127.65,20.37Zm.32,0a.46.46,0,0,0,.45.45.45.45,0,0,0,0-.9A.46.46,0,0,0,128,20.37Z" style="fill: #1d1d1b"/>
  </g>
</svg>
