<?xml version="1.0" encoding="utf-8"?>
<svg viewBox="0 0 127.9 27.3" xmlns="http://www.w3.org/2000/svg">
<path class="st0" d="M4.9,4.4c2.7,0,4.7,2,4.7,4.4c0,1.1-0.6,1.4-1.8,1.4H3c0.2,0.9,1,1.7,2.4,1.7c0.5,0,1.1-0.1,1.6-0.4
	c0.1-0.1,0.3-0.1,0.5-0.1c0.6,0,1.1,0.5,1.1,1.1c0,0.5-0.3,0.8-0.7,1C7,13.9,6,14.1,5,14.1c-2.9,0-5.1-1.9-5.1-4.9
	C-0.1,6.5,2,4.4,4.9,4.4z M3,8.2h3.8C6.7,7.6,6.2,6.6,4.9,6.6C3.6,6.6,3.1,7.6,3,8.2z"/>
<path class="st0" d="M10.6,12.2c0-0.7,0.5-1.2,1.2-1.2c0.2,0,0.4,0.1,0.5,0.1c0.8,0.4,1.7,0.7,2.5,0.7c0.9,0,1.2-0.3,1.2-0.7
	c0-0.5-0.6-0.7-1.6-0.8c-1.6-0.3-3.8-0.6-3.8-3c0-1.6,1.4-3.1,4-3.1c1.1,0,2.1,0.3,3,0.7c0.3,0.2,0.6,0.5,0.6,1
	c0,0.6-0.5,1.1-1.1,1.1c-0.2,0-0.4-0.1-0.5-0.1c-0.6-0.3-1.3-0.5-2-0.5c-0.7,0-1.2,0.2-1.2,0.6c0,0.4,0.5,0.6,1.5,0.7
	c1.6,0.3,3.9,0.7,3.9,3.1c0,1.8-1.6,3.1-4.2,3.1c-1.2,0-2.4-0.3-3.4-0.8C10.8,13.1,10.6,12.7,10.6,12.2z"/>
<path class="st0" d="M26.7,12.6V8.5c0-1.1-0.6-1.5-1.5-1.5c-0.9,0-1.4,0.5-1.8,0.9v4.7c0,0.8-0.7,1.5-1.5,1.5
	c-0.8,0-1.5-0.7-1.5-1.5V2.4c0-0.8,0.7-1.5,1.5-1.5c0.8,0,1.5,0.7,1.5,1.5v3.4c0.6-0.7,1.7-1.4,3.2-1.4c2.1,0,3.1,1.2,3.1,2.9v5.3
	c0,0.8-0.7,1.5-1.5,1.5C27.3,14,26.7,13.4,26.7,12.6z"/>
<path class="st0" d="M31.2,9.2c0-2.6,1.9-4.9,5.1-4.9c3.2,0,5.1,2.2,5.1,4.9s-1.9,4.9-5.1,4.9C33.1,14.1,31.2,11.8,31.2,9.2z
	 M38.3,9.2c0-1.2-0.7-2.2-2-2.2c-1.3,0-2,1-2,2.2c0,1.2,0.7,2.3,2,2.3C37.5,11.5,38.3,10.5,38.3,9.2z"/>
<path class="st0" d="M52.6,9.2c0,3.2-1.7,4.9-4.1,4.9c-1,0-2-0.4-2.7-1.3v3.3c0,0.8-0.7,1.5-1.5,1.5c-0.8,0-1.5-0.7-1.5-1.5V5.9
	c0-0.8,0.6-1.5,1.5-1.5c0.7,0,1.4,0.6,1.5,1.3c0.7-0.9,1.7-1.3,2.7-1.3C50.9,4.4,52.6,6.1,52.6,9.2z M49.6,9.2c0-1.4-0.9-2.2-2-2.2
	c-0.6,0-1.4,0.3-1.8,0.8v2.8c0.4,0.5,1.1,0.8,1.8,0.8C48.7,11.5,49.6,10.6,49.6,9.2z"/>
<path class="st0" d="M54,1.7C54,0.7,54.7,0,55.7,0s1.7,0.7,1.7,1.7s-0.7,1.7-1.7,1.7S54,2.6,54,1.7z M54.2,12.6V5.9
	c0-0.8,0.7-1.5,1.5-1.5c0.8,0,1.5,0.7,1.5,1.5v6.7c0,0.8-0.7,1.5-1.5,1.5C54.9,14,54.2,13.4,54.2,12.6z"/>
<path class="st0" d="M58.8,12.2c0-0.7,0.5-1.2,1.2-1.2c0.2,0,0.4,0.1,0.5,0.1c0.8,0.4,1.7,0.7,2.5,0.7c0.9,0,1.2-0.3,1.2-0.7
	c0-0.5-0.6-0.7-1.6-0.8c-1.6-0.3-3.8-0.6-3.8-3c0-1.6,1.4-3.1,4-3.1c1.1,0,2.1,0.3,3,0.7c0.3,0.2,0.6,0.5,0.6,1
	c0,0.6-0.5,1.1-1.1,1.1c-0.2,0-0.4-0.1-0.5-0.1c-0.6-0.3-1.3-0.5-2-0.5c-0.7,0-1.2,0.2-1.2,0.6c0,0.4,0.5,0.6,1.5,0.7
	c1.6,0.3,3.9,0.7,3.9,3.1c0,1.8-1.6,3.1-4.2,3.1c-1.2,0-2.4-0.3-3.4-0.8C59.1,13.1,58.8,12.7,58.8,12.2z"/>
<path class="st0" d="M74.3,12.8c0,0.6-0.4,1.1-0.9,1.2c-0.3,0.1-0.7,0.2-1.2,0.2c-1.9,0-2.9-0.9-2.9-2.7V7.2h-0.4
	c-0.7,0-1.3-0.6-1.3-1.3c0-0.7,0.6-1.3,1.3-1.3h0.4V3.4c0-0.8,0.7-1.5,1.5-1.5c0.8,0,1.5,0.7,1.5,1.5v1.2h0.8c0.7,0,1.3,0.6,1.3,1.3
	c0,0.7-0.6,1.3-1.3,1.3h-0.8v3.4c0,0.5,0.3,0.9,0.8,0.9h0.3C73.8,11.5,74.3,12.1,74.3,12.8z"/>
<path class="st0" d="M79.8,4.4c2.7,0,4.7,2,4.7,4.4c0,1.1-0.6,1.4-1.8,1.4H78c0.2,0.9,1,1.7,2.4,1.7c0.5,0,1.1-0.1,1.6-0.4
	c0.1-0.1,0.3-0.1,0.5-0.1c0.6,0,1.1,0.5,1.1,1.1c0,0.5-0.3,0.8-0.7,1c-0.9,0.4-1.9,0.6-2.9,0.6c-2.9,0-5.1-1.9-5.1-4.9
	C74.9,6.5,76.9,4.4,79.8,4.4z M77.9,8.2h3.8c-0.1-0.7-0.6-1.6-1.9-1.6C78.5,6.6,78,7.6,77.9,8.2z"/>
<path class="st0" d="M87.5,10.5c1,0,1.8,0.8,1.8,1.8c0,1-0.8,1.8-1.8,1.8c-1,0-1.8-0.8-1.8-1.8C85.7,11.3,86.5,10.5,87.5,10.5z"/>
<path class="st0" d="M95.6,4.4c1.1,0,2,0.3,2.7,0.7c0.4,0.2,0.7,0.6,0.7,1.1c0,0.7-0.6,1.3-1.3,1.3c-0.2,0-0.5-0.1-0.7-0.2
	C96.6,7.1,96.2,7,95.7,7c-1.2,0-2.2,0.8-2.2,2.2s0.9,2.3,2.2,2.3c0.5,0,0.8-0.1,1.2-0.4c0.2-0.1,0.4-0.2,0.7-0.2
	c0.7,0,1.3,0.6,1.3,1.3c0,0.5-0.2,0.9-0.7,1.1c-0.7,0.4-1.5,0.7-2.7,0.7c-2.9,0-5.1-2-5.1-4.9C90.5,6.3,92.7,4.4,95.6,4.4z"/>
<path class="st0" d="M100,12.4c0-0.3,0.1-0.7,0.3-0.9l3.6-4.3h-2.6c-0.7,0-1.3-0.6-1.3-1.3c0-0.7,0.6-1.3,1.3-1.3h5.4
	c0.8,0,1.4,0.6,1.4,1.4c0,0.3-0.1,0.7-0.3,0.9l-3.6,4.4h2.7c0.7,0,1.3,0.6,1.3,1.3s-0.6,1.3-1.3,1.3h-5.4
	C100.6,13.9,100,13.2,100,12.4z"/>
<path class="st1" d="M0,25.3v-4.9C0,20.2,0.1,20,0.3,20h2.3c0.2,0,0.3,0.1,0.3,0.3s-0.1,0.3-0.3,0.3h-2v1.9h1.9
	c0.2,0,0.3,0.1,0.3,0.3c0,0.2-0.1,0.3-0.3,0.3H0.7v2h2c0.2,0,0.3,0.1,0.3,0.3c0,0.2-0.1,0.3-0.3,0.3H0.3C0.1,25.6,0,25.5,0,25.3z"
	/>
<path class="st1" d="M3.5,23.6c0-0.1,0.1-0.3,0.3-0.3H5c0.1,0,0.3,0.1,0.3,0.3c0,0.2-0.1,0.3-0.3,0.3H3.7
	C3.6,23.9,3.5,23.8,3.5,23.6z"/>
<path class="st1" d="M5.8,25.1c0-0.1,0.1-0.3,0.3-0.3c0.1,0,0.1,0,0.2,0.1c0.2,0.2,0.5,0.3,0.9,0.3c0.5,0,0.8-0.3,0.8-0.6
	c0-0.4-0.4-0.6-0.8-0.8c-0.6-0.2-1.2-0.5-1.2-1.2c0-0.6,0.5-1.1,1.3-1.1c0.4,0,0.8,0.1,1.1,0.4c0.1,0,0.1,0.1,0.1,0.2
	c0,0.1-0.1,0.2-0.2,0.2c-0.1,0-0.1,0-0.2-0.1C7.7,22.1,7.5,22,7.2,22c-0.4,0-0.7,0.2-0.7,0.6c0,0.4,0.4,0.6,0.8,0.7
	c0.6,0.2,1.2,0.5,1.2,1.3c0,0.7-0.5,1.2-1.4,1.2c-0.5,0-0.9-0.1-1.2-0.4C5.8,25.3,5.8,25.2,5.8,25.1z"/>
<path class="st1" d="M11.5,25.4v-2.6c0-0.5-0.3-0.7-0.7-0.7c-0.4,0-0.8,0.3-1,0.6v2.7c0,0.2-0.1,0.3-0.3,0.3
	c-0.2,0-0.3-0.1-0.3-0.3v-5.1c0-0.2,0.1-0.3,0.3-0.3c0.2,0,0.3,0.1,0.3,0.3v1.9c0.2-0.4,0.7-0.7,1.2-0.7c0.7,0,1,0.3,1,1.1v2.8
	c0,0.2-0.1,0.3-0.3,0.3C11.7,25.7,11.5,25.5,11.5,25.4z"/>
<path class="st1" d="M13,23.6c0-1.1,0.6-2.1,1.6-2.1c1.1,0,1.7,1,1.7,2.1s-0.6,2.1-1.7,2.1C13.6,25.8,13,24.8,13,23.6z M15.7,23.6
	c0-0.8-0.3-1.6-1-1.6c-0.7,0-1,0.8-1,1.6c0,0.8,0.3,1.6,1,1.6C15.4,25.2,15.7,24.4,15.7,23.6z"/>
<path class="st1" d="M20.4,23.6c0,1.3-0.5,2.1-1.5,2.1c-0.4,0-0.8-0.2-1.1-0.7v1.9c0,0.2-0.1,0.3-0.3,0.3c-0.2,0-0.3-0.1-0.3-0.3
	v-5.1c0-0.2,0.1-0.3,0.3-0.3c0.2,0,0.3,0.1,0.3,0.3v0.3c0.2-0.4,0.6-0.7,1.1-0.7C19.8,21.5,20.4,22.3,20.4,23.6z M19.7,23.6
	c0-0.9-0.3-1.6-1-1.6c-0.4,0-0.8,0.3-0.9,0.7v1.9c0.2,0.4,0.5,0.7,0.9,0.7C19.4,25.2,19.7,24.5,19.7,23.6z"/>
<path class="st1" d="M21.3,26.8c0,0,0.1,0,0.1,0c0.2,0,0.4-0.1,0.5-0.4l0.2-0.6L20.9,22c0,0,0-0.1,0-0.1c0-0.2,0.1-0.3,0.3-0.3
	c0.1,0,0.3,0.1,0.3,0.2l1,3.1l1-3.2c0-0.1,0.2-0.2,0.3-0.2c0.2,0,0.3,0.1,0.3,0.3c0,0,0,0.1,0,0.1l-1.5,4.5c-0.2,0.6-0.5,0.8-1,0.8
	c-0.1,0-0.1,0-0.1,0c-0.2,0-0.3-0.1-0.3-0.3C21.1,26.9,21.2,26.8,21.3,26.8z"/>
<path class="st1" d="M29.3,22.6v2.8c0,0.2-0.1,0.3-0.3,0.3c-0.2,0-0.3-0.1-0.3-0.3v-2.6c0-0.5-0.2-0.7-0.6-0.7
	c-0.4,0-0.8,0.3-1,0.6v2.7c0,0.2-0.1,0.3-0.3,0.3c-0.2,0-0.3-0.1-0.3-0.3v-3.5c0-0.2,0.1-0.3,0.3-0.3c0.2,0,0.3,0.1,0.3,0.3v0.3
	c0.2-0.3,0.7-0.7,1.2-0.7C29,21.5,29.3,21.9,29.3,22.6z"/>
<path class="st1" d="M33.1,22.8v2.6c0,0.2-0.1,0.3-0.3,0.3c-0.2,0-0.3-0.1-0.3-0.3v-0.2c-0.2,0.4-0.6,0.5-1.1,0.5
	c-0.7,0-1.2-0.5-1.2-1.4s0.6-1.3,1.2-1.3c0.4,0,0.8,0.2,1.1,0.5v-0.7c0-0.6-0.3-0.9-0.8-0.9c-0.3,0-0.6,0.1-0.8,0.3
	c0,0-0.1,0.1-0.2,0.1c-0.1,0-0.3-0.1-0.3-0.3c0-0.1,0-0.2,0.1-0.2c0.4-0.3,0.8-0.5,1.2-0.5C32.6,21.5,33.1,21.9,33.1,22.8z
	 M32.5,24.8V24c-0.2-0.3-0.5-0.5-0.9-0.5c-0.5,0-0.8,0.4-0.8,0.9s0.3,0.9,0.8,0.9C32,25.3,32.3,25.1,32.5,24.8z"/>
<path class="st1" d="M37.3,23.6c0,1.3-0.5,2.1-1.5,2.1c-0.4,0-0.8-0.3-1.1-0.7v0.3c0,0.2-0.1,0.3-0.3,0.3c-0.2,0-0.3-0.1-0.3-0.3
	v-5.1c0-0.2,0.1-0.3,0.3-0.3c0.2,0,0.3,0.1,0.3,0.3v1.9c0.2-0.5,0.6-0.7,1.1-0.7C36.8,21.5,37.3,22.4,37.3,23.6z M36.7,23.6
	c0-0.9-0.3-1.6-1-1.6c-0.4,0-0.8,0.3-0.9,0.7v1.9c0.2,0.4,0.5,0.7,0.9,0.7C36.4,25.2,36.7,24.5,36.7,23.6z"/>
<path class="st1" d="M38.2,25.4v-3.5c0-0.2,0.1-0.3,0.3-0.3c0.2,0,0.3,0.1,0.3,0.3v3.5c0,0.2-0.1,0.3-0.3,0.3
	C38.4,25.7,38.2,25.5,38.2,25.4z M38.6,20.8c-0.1,0-0.2-0.1-0.2-0.2c0,0,0-0.1,0-0.1l0.7-0.9c0,0,0.1-0.1,0.2-0.1
	c0.1,0,0.2,0.1,0.2,0.2c0,0.1,0,0.1-0.1,0.2l-0.8,0.9C38.7,20.8,38.6,20.8,38.6,20.8z"/>
<path class="st1" d="M39.7,25.3c0-0.1,0-0.1,0.1-0.2l1.7-3H40c-0.1,0-0.3-0.1-0.3-0.3c0-0.2,0.1-0.3,0.3-0.3h2
	c0.2,0,0.3,0.1,0.3,0.3c0,0.1,0,0.1-0.1,0.2l-1.7,3.1H42c0.1,0,0.3,0.1,0.3,0.3c0,0.2-0.1,0.3-0.3,0.3h-2
	C39.9,25.6,39.7,25.5,39.7,25.3z"/>
<path class="st1" d="M44.6,21.5c1.1,0,1.6,1,1.6,2c0,0.2-0.1,0.3-0.4,0.3h-2.3c0,0.8,0.4,1.4,1.2,1.4c0.3,0,0.6-0.1,0.8-0.4
	c0,0,0.1-0.1,0.2-0.1c0.1,0,0.2,0.1,0.2,0.2c0,0.1,0,0.1-0.1,0.2c-0.3,0.3-0.7,0.5-1.2,0.5c-1.1,0-1.7-0.9-1.7-2.1
	C43,22.4,43.6,21.5,44.6,21.5z M43.6,23.4h2c0-0.6-0.3-1.4-1-1.4C43.9,22,43.6,22.8,43.6,23.4z"/>
<path class="st1" d="M49.9,22.6v2.8c0,0.2-0.1,0.3-0.3,0.3c-0.2,0-0.3-0.1-0.3-0.3v-2.6c0-0.5-0.2-0.7-0.6-0.7
	c-0.4,0-0.8,0.3-1,0.6v2.7c0,0.2-0.1,0.3-0.3,0.3c-0.2,0-0.3-0.1-0.3-0.3v-3.5c0-0.2,0.1-0.3,0.3-0.3c0.2,0,0.3,0.1,0.3,0.3v0.3
	c0.2-0.3,0.7-0.7,1.2-0.7C49.6,21.5,49.9,21.9,49.9,22.6z"/>
<path class="st1" d="M52.5,21.5c1.1,0,1.6,1,1.6,2c0,0.2-0.1,0.3-0.4,0.3h-2.3c0,0.8,0.4,1.4,1.2,1.4c0.3,0,0.6-0.1,0.8-0.4
	c0,0,0.1-0.1,0.2-0.1c0.1,0,0.2,0.1,0.2,0.2c0,0.1,0,0.1-0.1,0.2c-0.3,0.3-0.7,0.5-1.2,0.5c-1.1,0-1.7-0.9-1.7-2.1
	C50.8,22.4,51.5,21.5,52.5,21.5z M51.5,23.4h2c0-0.6-0.3-1.4-1-1.4C51.8,22,51.5,22.8,51.5,23.4z M52.5,20.8
	c-0.1,0-0.2-0.1-0.2-0.2c0,0,0-0.1,0-0.1l0.7-0.9c0,0,0.1-0.1,0.2-0.1c0.1,0,0.2,0.1,0.2,0.2c0,0.1,0,0.1-0.1,0.2l-0.8,0.9
	C52.6,20.8,52.6,20.8,52.5,20.8z"/>
<path class="st1" d="M59.6,25.4c0,0.2-0.1,0.3-0.3,0.3c-0.1,0-0.2-0.1-0.2-0.1L58,23.8l-0.6,0.7v0.8c0,0.2-0.1,0.3-0.3,0.3
	c-0.2,0-0.3-0.1-0.3-0.3v-5.1c0-0.2,0.1-0.3,0.3-0.3c0.2,0,0.3,0.1,0.3,0.3v3.5l1.7-2.1c0.1-0.1,0.1-0.1,0.2-0.1
	c0.2,0,0.3,0.1,0.3,0.3c0,0.1,0,0.1-0.1,0.2l-1.2,1.4l1.2,1.8C59.6,25.3,59.6,25.3,59.6,25.4z"/>
<path class="st1" d="M65.4,23.6c0,1.3-0.5,2.1-1.5,2.1c-0.4,0-0.8-0.2-1.1-0.7v1.9c0,0.2-0.1,0.3-0.3,0.3c-0.2,0-0.3-0.1-0.3-0.3
	v-5.1c0-0.2,0.1-0.3,0.3-0.3c0.2,0,0.3,0.1,0.3,0.3v0.3c0.2-0.4,0.6-0.7,1.1-0.7C64.8,21.5,65.4,22.3,65.4,23.6z M64.8,23.6
	c0-0.9-0.3-1.6-1-1.6c-0.4,0-0.8,0.3-0.9,0.7v1.9c0.2,0.4,0.5,0.7,0.9,0.7C64.4,25.2,64.8,24.5,64.8,23.6z"/>
<path class="st1" d="M68.1,21.8c0,0.1-0.1,0.3-0.3,0.3c-0.4,0-0.7,0.3-0.9,0.7v2.6c0,0.2-0.1,0.3-0.3,0.3c-0.2,0-0.3-0.1-0.3-0.3
	v-3.5c0-0.2,0.1-0.3,0.3-0.3c0.2,0,0.3,0.1,0.3,0.3v0.4c0.2-0.3,0.4-0.5,0.7-0.7c0.1,0,0.1-0.1,0.2-0.1
	C68,21.5,68.1,21.7,68.1,21.8z"/>
<path class="st1" d="M68.5,23.6c0-1.1,0.6-2.1,1.6-2.1c1.1,0,1.7,1,1.7,2.1s-0.6,2.1-1.7,2.1C69.1,25.8,68.5,24.8,68.5,23.6z
	 M71.2,23.6c0-0.8-0.3-1.6-1-1.6c-0.7,0-1,0.8-1,1.6c0,0.8,0.3,1.6,1,1.6C70.9,25.2,71.2,24.4,71.2,23.6z"/>
<path class="st1" d="M75.7,20.3v5.1c0,0.2-0.1,0.3-0.3,0.3c-0.2,0-0.3-0.1-0.3-0.3v-0.3c-0.2,0.4-0.6,0.7-1.1,0.7
	c-0.9,0-1.5-0.8-1.5-2.1c0-1.3,0.5-2.1,1.5-2.1c0.4,0,0.8,0.2,1.1,0.7v-1.9c0-0.2,0.1-0.3,0.3-0.3C75.5,20,75.7,20.1,75.7,20.3z
	 M75.1,24.6v-1.9c-0.2-0.4-0.5-0.7-0.9-0.7c-0.7,0-1,0.7-1,1.6c0,0.9,0.3,1.6,1,1.6C74.5,25.2,74.9,24.9,75.1,24.6z"/>
<path class="st1" d="M78.2,21.5c1.1,0,1.6,1,1.6,2c0,0.2-0.1,0.3-0.4,0.3h-2.3c0,0.8,0.4,1.4,1.2,1.4c0.3,0,0.6-0.1,0.8-0.4
	c0,0,0.1-0.1,0.2-0.1c0.1,0,0.2,0.1,0.2,0.2c0,0.1,0,0.1-0.1,0.2c-0.3,0.3-0.7,0.5-1.2,0.5c-1.1,0-1.7-0.9-1.7-2.1
	C76.6,22.4,77.2,21.5,78.2,21.5z M77.2,23.4h2c0-0.6-0.3-1.4-1-1.4C77.5,22,77.2,22.8,77.2,23.4z"/>
<path class="st1" d="M80.2,27.3c-0.1,0-0.3-0.1-0.3-0.3c0-0.2,0.1-0.3,0.2-0.3c0,0,0.1,0,0.1,0c0.3,0,0.4-0.2,0.4-0.6v-4.4
	c0-0.2,0.1-0.3,0.3-0.3c0.2,0,0.3,0.1,0.3,0.3v4.4c0,0.7-0.4,1.1-1,1.1C80.3,27.3,80.2,27.3,80.2,27.3z M80.6,20.4
	c0-0.2,0.2-0.4,0.4-0.4c0.2,0,0.4,0.2,0.4,0.4s-0.2,0.4-0.4,0.4C80.8,20.8,80.6,20.7,80.6,20.4z"/>
<path class="st1" d="M82.3,20.3c0-0.2,0.2-0.4,0.4-0.4c0.2,0,0.4,0.2,0.4,0.4s-0.2,0.4-0.4,0.4C82.5,20.8,82.3,20.6,82.3,20.3z
	 M82.4,25.4v-3.5c0-0.2,0.1-0.3,0.3-0.3c0.2,0,0.3,0.1,0.3,0.3v3.5c0,0.2-0.1,0.3-0.3,0.3C82.6,25.7,82.4,25.5,82.4,25.4z"/>
<path class="st1" d="M88.7,22.6v2.8c0,0.2-0.1,0.3-0.3,0.3c-0.2,0-0.3-0.1-0.3-0.3v-2.6c0-0.5-0.2-0.7-0.6-0.7
	c-0.4,0-0.8,0.3-1,0.6v2.7c0,0.2-0.1,0.3-0.3,0.3c-0.2,0-0.3-0.1-0.3-0.3v-3.5c0-0.2,0.1-0.3,0.3-0.3c0.2,0,0.3,0.1,0.3,0.3v0.3
	c0.2-0.3,0.7-0.7,1.2-0.7C88.4,21.5,88.7,21.9,88.7,22.6z"/>
<path class="st1" d="M91.3,21.5c1.1,0,1.6,1,1.6,2c0,0.2-0.1,0.3-0.4,0.3h-2.3c0,0.8,0.4,1.4,1.2,1.4c0.3,0,0.6-0.1,0.8-0.4
	c0,0,0.1-0.1,0.2-0.1c0.1,0,0.2,0.1,0.2,0.2c0,0.1,0,0.1-0.1,0.2c-0.3,0.3-0.7,0.5-1.2,0.5c-1.1,0-1.7-0.9-1.7-2.1
	C89.6,22.4,90.3,21.5,91.3,21.5z M90.3,23.4h2c0-0.6-0.3-1.4-1-1.4C90.6,22,90.3,22.8,90.3,23.4z"/>
<path class="st1" d="M96.9,23.6c0,1.3-0.5,2.1-1.5,2.1c-0.4,0-0.8-0.3-1.1-0.7v0.3c0,0.2-0.1,0.3-0.3,0.3c-0.2,0-0.3-0.1-0.3-0.3
	v-5.1c0-0.2,0.1-0.3,0.3-0.3c0.2,0,0.3,0.1,0.3,0.3v1.9c0.2-0.5,0.6-0.7,1.1-0.7C96.4,21.5,96.9,22.4,96.9,23.6z M96.3,23.6
	c0-0.9-0.3-1.6-1-1.6c-0.4,0-0.8,0.3-0.9,0.7v1.9c0.2,0.4,0.5,0.7,0.9,0.7C95.9,25.2,96.3,24.5,96.3,23.6z"/>
<path class="st1" d="M97.6,23.6c0-1.1,0.6-2.1,1.6-2.1c1.1,0,1.7,1,1.7,2.1s-0.6,2.1-1.7,2.1C98.2,25.8,97.6,24.8,97.6,23.6z
	 M100.3,23.6c0-0.8-0.3-1.6-1-1.6c-0.7,0-1,0.8-1,1.6c0,0.8,0.3,1.6,1,1.6C100,25.2,100.3,24.4,100.3,23.6z"/>
<path class="st1" d="M103.5,20.3c0-0.2,0.2-0.4,0.4-0.4c0.2,0,0.4,0.2,0.4,0.4s-0.2,0.4-0.4,0.4C103.7,20.8,103.5,20.6,103.5,20.3z
	 M103.6,25.4v-3.5c0-0.2,0.1-0.3,0.3-0.3c0.2,0,0.3,0.1,0.3,0.3v3.5c0,0.2-0.1,0.3-0.3,0.3C103.8,25.7,103.6,25.5,103.6,25.4z"/>
<path class="st1" d="M108.1,22.6v2.8c0,0.2-0.1,0.3-0.3,0.3c-0.2,0-0.3-0.1-0.3-0.3v-2.6c0-0.5-0.2-0.7-0.6-0.7
	c-0.4,0-0.8,0.3-1,0.6v2.7c0,0.2-0.1,0.3-0.3,0.3c-0.2,0-0.3-0.1-0.3-0.3v-3.5c0-0.2,0.1-0.3,0.3-0.3c0.2,0,0.3,0.1,0.3,0.3v0.3
	c0.2-0.3,0.7-0.7,1.2-0.7C107.8,21.5,108.1,21.9,108.1,22.6z"/>
<path class="st1" d="M112,21.9c0,0,0,0.1,0,0.1l-1.1,3.4c-0.1,0.2-0.2,0.3-0.4,0.3c-0.2,0-0.4-0.1-0.4-0.3l-1.1-3.4
	c0,0,0-0.1,0-0.1c0-0.2,0.1-0.3,0.3-0.3c0.1,0,0.3,0.1,0.3,0.2l1,3.2l1-3.2c0-0.1,0.2-0.2,0.3-0.2C111.8,21.6,112,21.7,112,21.9z"
	/>
<path class="st1" d="M114.1,21.5c1.1,0,1.6,1,1.6,2c0,0.2-0.1,0.3-0.4,0.3h-2.3c0,0.8,0.4,1.4,1.2,1.4c0.3,0,0.6-0.1,0.8-0.4
	c0,0,0.1-0.1,0.2-0.1c0.1,0,0.2,0.1,0.2,0.2c0,0.1,0,0.1-0.1,0.2c-0.3,0.3-0.7,0.5-1.2,0.5c-1.1,0-1.7-0.9-1.7-2.1
	C112.5,22.4,113.1,21.5,114.1,21.5z M113.1,23.4h2c0-0.6-0.3-1.4-1-1.4C113.4,22,113.1,22.8,113.1,23.4z"/>
<path class="st1" d="M116.3,25.1c0-0.1,0.1-0.3,0.3-0.3c0.1,0,0.1,0,0.2,0.1c0.2,0.2,0.5,0.3,0.9,0.3c0.5,0,0.8-0.3,0.8-0.6
	c0-0.4-0.4-0.6-0.8-0.8c-0.6-0.2-1.2-0.5-1.2-1.2c0-0.6,0.5-1.1,1.3-1.1c0.4,0,0.8,0.1,1.1,0.4c0.1,0,0.1,0.1,0.1,0.2
	c0,0.1-0.1,0.2-0.2,0.2c-0.1,0-0.1,0-0.2-0.1c-0.2-0.2-0.5-0.3-0.8-0.3c-0.4,0-0.7,0.2-0.7,0.6c0,0.4,0.4,0.6,0.8,0.7
	c0.6,0.2,1.2,0.5,1.2,1.3c0,0.7-0.5,1.2-1.4,1.2c-0.5,0-0.9-0.1-1.2-0.4C116.4,25.3,116.3,25.2,116.3,25.1z"/>
<path class="st1" d="M121.4,25.4c0,0.1-0.1,0.2-0.1,0.2c-0.1,0.1-0.3,0.1-0.5,0.1c-0.6,0-0.8-0.3-0.8-0.9v-2.7h-0.3
	c-0.1,0-0.3-0.1-0.3-0.3c0-0.1,0.1-0.3,0.3-0.3h0.3v-0.8c0-0.2,0.1-0.3,0.3-0.3c0.2,0,0.3,0.1,0.3,0.3v0.8h0.5
	c0.1,0,0.3,0.1,0.3,0.3c0,0.2-0.1,0.3-0.3,0.3h-0.5v2.6c0,0.3,0.1,0.5,0.3,0.5c0.2,0,0.2-0.1,0.3-0.1
	C121.3,25.1,121.4,25.3,121.4,25.4z"/>
<path class="st1" d="M121.9,20.3c0-0.2,0.2-0.4,0.4-0.4c0.2,0,0.4,0.2,0.4,0.4s-0.2,0.4-0.4,0.4C122.1,20.8,121.9,20.6,121.9,20.3z
	 M122.1,25.4v-3.5c0-0.2,0.1-0.3,0.3-0.3c0.2,0,0.3,0.1,0.3,0.3v3.5c0,0.2-0.1,0.3-0.3,0.3C122.2,25.7,122.1,25.5,122.1,25.4z"/>
<path class="st1" d="M125.2,21.5c0.4,0,0.7,0.1,1,0.4c0.1,0.1,0.1,0.1,0.1,0.2c0,0.1-0.1,0.3-0.3,0.3c-0.1,0-0.1,0-0.2-0.1
	c-0.2-0.2-0.4-0.2-0.6-0.2c-0.7,0-1.1,0.7-1.1,1.6c0,0.9,0.4,1.6,1.1,1.6c0.2,0,0.4-0.1,0.6-0.3c0,0,0.1-0.1,0.2-0.1
	c0.2,0,0.3,0.1,0.3,0.3c0,0.1,0,0.2-0.1,0.2c-0.3,0.2-0.6,0.4-1,0.4c-1,0-1.7-0.9-1.7-2.1S124.2,21.5,125.2,21.5z"/>
<path class="st1" d="M127.1,20.3c0-0.2,0.2-0.4,0.4-0.4c0.2,0,0.4,0.2,0.4,0.4s-0.2,0.4-0.4,0.4C127.3,20.8,127.1,20.6,127.1,20.3z
	 M127.2,25.4v-3.5c0-0.2,0.1-0.3,0.3-0.3c0.2,0,0.3,0.1,0.3,0.3v3.5c0,0.2-0.1,0.3-0.3,0.3C127.3,25.7,127.2,25.5,127.2,25.4z"/>
</svg>
