<?xml version="1.0" encoding="utf-8"?>
<svg viewBox="0 -0.003 108.192 17.583" xmlns="http://www.w3.org/2000/svg" xmlns:bx="https://boxy-svg.com">
  <path d="M 4.88 4.36 C 7.398 4.241 9.528 6.201 9.62 8.72 C 9.62 9.78 8.99 10.16 7.85 10.16 L 3 10.16 C 3.267 11.22 4.273 11.923 5.36 11.81 C 5.928 11.806 6.488 11.676 7 11.43 C 7.147 11.35 7.312 11.309 7.48 11.31 C 8.103 11.315 8.601 11.828 8.59 12.45 C 8.575 12.884 8.315 13.271 7.92 13.45 C 7.009 13.886 6.01 14.108 5 14.1 C 2.204 14.284 -0.143 12.021 -0.06 9.22 C -0.101 6.487 2.148 4.274 4.88 4.36 Z M 3 8.24 L 6.8 8.24 C 6.695 7.278 5.845 6.574 4.88 6.65 C 3.939 6.621 3.127 7.307 3 8.24 Z M 10.56 12.22 C 10.56 11.332 11.498 10.757 12.29 11.16 C 13.062 11.574 13.915 11.816 14.79 11.87 C 15.67 11.87 16.04 11.58 16.04 11.18 C 16.04 10.78 15.4 10.53 14.44 10.37 C 12.87 10.1 10.64 9.78 10.64 7.42 C 10.64 5.78 12.04 4.36 14.64 4.36 C 15.684 4.356 16.714 4.606 17.64 5.09 C 18.402 5.459 18.479 6.515 17.778 6.99 C 17.596 7.114 17.38 7.18 17.16 7.18 C 16.979 7.179 16.801 7.134 16.64 7.05 C 16.025 6.717 15.339 6.539 14.64 6.53 C 13.95 6.53 13.47 6.76 13.47 7.17 C 13.47 7.58 13.97 7.74 14.95 7.91 C 16.53 8.18 18.87 8.57 18.87 11.03 C 18.87 12.79 17.31 14.1 14.64 14.1 C 13.45 14.104 12.276 13.82 11.22 13.27 C 10.825 13.066 10.572 12.664 10.56 12.22 Z M 26.68 12.56 L 26.68 8.47 C 26.68 7.34 26.08 6.97 25.14 6.97 C 24.437 6.979 23.779 7.315 23.36 7.88 L 23.36 12.56 C 23.328 13.357 22.678 13.99 21.88 14 C 21.063 14 20.4 13.337 20.4 12.52 L 20.4 2.36 C 20.4 1.543 21.063 0.88 21.88 0.88 C 22.693 0.891 23.349 1.547 23.36 2.36 L 23.36 5.72 C 24.179 4.823 25.346 4.327 26.56 4.36 C 28.68 4.36 29.64 5.55 29.64 7.26 L 29.64 12.56 C 29.608 13.357 28.958 13.99 28.16 14 C 27.358 14 26.702 13.362 26.68 12.56 Z M 31.17 9.22 C 31.125 6.438 33.452 4.203 36.23 4.36 C 39.014 4.19 41.352 6.431 41.3 9.22 C 41.357 12.014 39.02 14.264 36.23 14.1 C 33.449 14.245 31.126 12.005 31.17 9.22 Z M 38.26 9.22 C 38.26 7.68 36.593 6.718 35.26 7.488 C 34.641 7.845 34.26 8.505 34.26 9.22 C 34.26 10.76 35.927 11.722 37.26 10.952 C 37.879 10.595 38.26 9.935 38.26 9.22 Z M 52.63 9.22 C 52.63 12.37 50.88 14.1 48.56 14.1 C 47.488 14.12 46.47 13.635 45.81 12.79 L 45.81 16.1 C 45.81 16.917 45.147 17.58 44.33 17.58 C 43.517 17.569 42.861 16.913 42.85 16.1 L 42.85 5.9 C 42.828 5.064 43.494 4.371 44.33 4.36 C 45.072 4.374 45.705 4.902 45.85 5.63 C 46.507 4.809 47.509 4.34 48.56 4.36 C 50.88 4.36 52.63 6.09 52.63 9.22 Z M 49.63 9.22 C 49.74 8.032 48.822 7 47.63 6.97 C 46.945 6.987 46.301 7.296 45.86 7.82 L 45.86 10.64 C 46.306 11.157 46.948 11.465 47.63 11.49 C 48.827 11.456 49.743 10.411 49.62 9.22 L 49.63 9.22 Z M 54 1.69 C 54 0.389 55.408 -0.424 56.535 0.226 C 57.058 0.528 57.38 1.086 57.38 1.69 C 57.38 2.991 55.972 3.804 54.845 3.154 C 54.322 2.852 54 2.294 54 1.69 Z M 54.21 12.56 L 54.21 5.9 C 54.21 4.745 55.46 4.024 56.46 4.601 C 56.924 4.869 57.21 5.364 57.21 5.9 L 57.21 12.56 C 57.21 13.715 55.96 14.436 54.96 13.859 C 54.496 13.591 54.21 13.096 54.21 12.56 Z M 58.78 12.22 C 58.763 11.539 59.319 10.983 60 11 C 60.188 11.002 60.372 11.046 60.54 11.13 C 61.311 11.546 62.165 11.789 63.04 11.84 C 63.92 11.84 64.28 11.55 64.28 11.15 C 64.28 10.75 63.65 10.5 62.69 10.34 C 61.11 10.07 58.89 9.75 58.89 7.39 C 58.89 5.75 60.29 4.33 62.89 4.33 C 63.934 4.326 64.964 4.576 65.89 5.06 C 66.66 5.445 66.724 6.519 66.006 6.993 C 65.673 7.213 65.247 7.239 64.89 7.06 C 64.275 6.728 63.589 6.55 62.89 6.54 C 62.2 6.54 61.72 6.77 61.72 7.18 C 61.72 7.59 62.22 7.75 63.2 7.92 C 64.77 8.19 67.12 8.58 67.12 11.04 C 67.12 12.8 65.56 14.11 62.89 14.11 C 61.7 14.114 60.526 13.83 59.47 13.28 C 59.061 13.083 58.795 12.674 58.78 12.22 Z M 74.26 12.76 C 74.285 13.345 73.89 13.866 73.32 14 C 72.925 14.103 72.518 14.153 72.11 14.15 C 70.23 14.15 69.21 13.21 69.21 11.42 L 69.21 7.17 L 68.79 7.17 C 68.082 7.159 67.511 6.588 67.5 5.88 C 67.5 5.168 68.078 4.59 68.79 4.59 L 69.21 4.59 L 69.21 3.36 C 69.21 2.228 70.435 1.521 71.415 2.087 C 71.87 2.35 72.15 2.835 72.15 3.36 L 72.15 4.59 L 72.92 4.59 C 73.632 4.59 74.21 5.168 74.21 5.88 C 74.199 6.588 73.628 7.159 72.92 7.17 L 72.15 7.17 L 72.15 10.55 C 72.092 11.026 72.442 11.454 72.92 11.49 L 73.21 11.49 C 73.844 11.563 74.307 12.124 74.26 12.76 Z M 79.83 4.36 C 82.352 4.236 84.488 6.197 84.58 8.72 C 84.58 9.78 83.94 10.16 82.81 10.16 L 78 10.16 C 78.267 11.22 79.273 11.923 80.36 11.81 C 80.928 11.806 81.488 11.676 82 11.43 C 82.146 11.347 82.312 11.305 82.48 11.31 C 83.103 11.315 83.601 11.828 83.59 12.45 C 83.575 12.884 83.315 13.271 82.92 13.45 C 82.013 13.876 81.022 14.091 80.02 14.08 C 77.209 14.301 74.826 12.038 74.9 9.22 C 74.853 6.489 77.1 4.274 79.83 4.36 Z M 77.93 8.24 L 81.75 8.24 C 81.655 7.273 80.798 6.563 79.83 6.65 C 78.881 6.61 78.058 7.299 77.93 8.24 Z M 87.5 10.49 C 88.893 10.49 89.764 11.998 89.067 13.205 C 88.371 14.412 86.629 14.412 85.932 13.205 C 85.772 12.927 85.688 12.611 85.69 12.29 C 85.701 11.297 86.506 10.495 87.5 10.49 Z M 95.61 4.36 C 96.553 4.331 97.483 4.585 98.28 5.09 C 98.711 5.299 98.988 5.731 99 6.21 C 98.995 6.941 98.401 7.53 97.67 7.53 C 97.427 7.534 97.187 7.468 96.98 7.34 C 96.617 7.089 96.18 6.969 95.74 7 C 94.491 6.955 93.48 8.004 93.57 9.25 C 93.481 10.499 94.488 11.553 95.74 11.52 C 96.167 11.531 96.585 11.401 96.93 11.15 C 97.132 11.025 97.363 10.953 97.6 10.94 C 98.342 10.94 98.941 11.548 98.93 12.29 C 98.933 12.751 98.683 13.177 98.28 13.4 C 97.483 13.905 96.553 14.159 95.61 14.13 C 92.816 14.3 90.472 12.048 90.53 9.25 C 90.46 6.445 92.81 4.183 95.61 4.36 Z M 100 12.41 C 100.004 12.077 100.116 11.754 100.32 11.49 L 103.9 7.17 L 101.28 7.17 C 100.574 7.159 100.005 6.586 100 5.88 C 99.994 5.169 100.569 4.59 101.28 4.59 L 106.68 4.59 C 107.45 4.595 108.067 5.23 108.05 6 C 108.05 6.331 107.937 6.652 107.73 6.91 L 104.1 11.34 L 106.84 11.34 C 107.547 11.334 108.124 11.903 108.13 12.61 C 108.13 13.322 107.552 13.9 106.84 13.9 L 101.43 13.9 C 100.621 13.889 99.978 13.219 100 12.41 Z" fill="#1d1d1b" transform="matrix(1, 0, 0, 1, 0, 0)" bx:origin="0.001 0"/>
</svg>
