<?xml version="1.0" encoding="utf-8"?>
<!-- Generator: Adobe Illustrator 22.0.1, SVG Export Plug-In . SVG Version: 6.00 Build 0)  -->
<svg version="1.1" id="Vrstva_1" xmlns="http://www.w3.org/2000/svg" xmlns:xlink="http://www.w3.org/1999/xlink" x="0px" y="0px"
	 viewBox="0 0 31.1 31.7" style="enable-background:new 0 0 31.1 31.7;" xml:space="preserve">
<style type="text/css">
	.st0{fill:#1D1D1B;}
</style>
<g>
	<polygon class="st0" points="3.5,30.4 3.5,0 2.1,0 2.1,4.5 0,4.5 0,5.8 2.1,5.8 2.1,9.7 0,9.7 0,11 2.1,11 2.1,14.8 0,14.8 0,16.2 
		2.1,16.2 2.1,20 0,20 0,21.4 2.1,21.4 2.1,25.2 0,25.2 0,26.6 2.1,26.6 2.1,31.8 31.1,31.8 31.1,30.4 	"/>
	<path class="st0" d="M9.6,22.3h4.7v-6.1h2v7.6H21v-7.6h2v5.3h4.7v-6.7h-3.3V8.8h-4.7v6.1h-2V7.2h-4.7v7.6h-2V9.5H6.2v6.7h3.3V22.3z
		 M26.3,16.2v3.9h-2v-3.9H26.3z M21,10.1h2v4.7h-2V10.1z M19.6,16.2v6.2h-2v-6.2H19.6z M14.3,8.6h2v6.2h-2V8.6z M12.9,16.2v4.7h-2
		v-4.7H12.9z M7.6,14.8v-3.9h2v3.9H7.6z"/>
</g>
</svg>
