<?xml version="1.0" encoding="utf-8"?>
<!-- Generator: Adobe Illustrator 22.0.1, SVG Export Plug-In . SVG Version: 6.00 Build 0)  -->
<svg version="1.1" id="Vrstva_1" xmlns="http://www.w3.org/2000/svg" xmlns:xlink="http://www.w3.org/1999/xlink" x="0px" y="0px"
	 viewBox="0 0 25.1 31.7" style="enable-background:new 0 0 25.1 31.7;" xml:space="preserve">
<style type="text/css">
	.st0{fill:#1D1D1B;}
</style>
<g>
	<path class="st0" d="M9.9,7.7c0.3,0.2,0.7,0.2,0.9-0.1c0.2-0.3,0.2-0.7-0.1-0.9c0,0-0.2-0.2-0.2-1c0-0.4,0.1-0.5,0.4-1L11,4.5
		c0.4-0.5,1-1.2,1.3-1.8c0.1-0.2,0.2-0.4,0.2-0.5c0.1,0.1,0.3,0.2,0.4,0.3c0.8,0.6,1.4,1.2,1.7,2c0.3,1,0.1,1.9-0.7,2.5
		c-0.3,0.2-0.3,0.7-0.1,0.9c0.1,0.1,0.3,0.2,0.5,0.2c0.2,0,0.3-0.1,0.4-0.2c1.1-1,1.5-2.3,1-3.9c-0.3-1.3-1.3-2-2.1-2.7
		c-0.5-0.4-0.9-0.7-1.2-1.1C12.3,0.1,12,0,11.7,0.2c-0.3,0.2-0.4,0.5-0.3,0.8c0,0.1,0,0.5-0.3,1.2c-0.2,0.5-0.7,1-1.1,1.5L9.9,3.8
		c-0.5,0.6-0.8,1-0.8,1.9C9.1,6.1,9.2,7.1,9.9,7.7z"/>
	<path class="st0" d="M25.2,27.1c0-0.1,0-0.3-0.1-0.4v-7.9c0-1.9-1.2-3.5-2.6-3.5h-6.9V9.6c0-0.4-0.3-0.7-0.7-0.7h-1.6V7.1
		c0-0.4-0.3-0.7-0.7-0.7c-0.4,0-0.7,0.3-0.7,0.7v1.8h-1.6c-0.4,0-0.7,0.3-0.7,0.7v5.7H2.7c-1.5,0-2.6,1.6-2.6,3.5v7.9
		C0,26.8,0,26.9,0,27.1c0,0.1,0,0.3,0.1,0.4v0.7c0,1.9,1.2,3.5,2.6,3.5h19.7c1.5,0,2.6-1.6,2.6-3.5v-0.7
		C25.2,27.3,25.2,27.2,25.2,27.1z M1.2,22.4c0.8,0.6,1.9,1,3.2,0.5c0.8-0.3,1.4-0.9,1.9-1.3c0.8-0.8,0.9-0.7,1.2-0.5
		c0.4,0.3,0.7,0.6,1,0.9c0.7,0.7,1.5,1.7,3.5,1.5c1.5-0.2,2.3-1.1,2.9-1.8c0.5-0.6,0.8-0.9,1.1-0.8c0.4,0,0.7,0.4,1.2,1
		c0.6,0.8,1.5,2,3,2c0.1,0,0.1,0,0.2,0c1.5-0.1,2.8-0.9,3.5-1.6v4.1H1.2V22.4z M11,10.3h3.2v5H11V10.3z M2.7,16.9h7.6h4.5h7.6
		c0.8,0,1.5,0.9,1.5,1.9v1c-0.2,0-0.4,0.2-0.6,0.3c0,0-1.3,1.7-3.1,1.8c-0.7,0-1.1-0.4-1.7-1.3c-0.6-0.8-1.3-1.7-2.5-1.7
		c-1.3,0-2,0.8-2.6,1.5c-0.5,0.6-0.9,1.1-1.8,1.2c-1.1,0.1-1.4-0.2-2-0.9c-0.4-0.4-0.8-0.9-1.4-1.2c-1.5-0.9-2.6,0.1-3.3,0.7
		c-0.4,0.4-0.8,0.8-1.3,1c-1.1,0.4-1.9-0.7-2-0.7c-0.1-0.2-0.3-0.3-0.6-0.3v-1.3C1.2,17.7,1.9,16.9,2.7,16.9z M22.5,30.1H2.7
		c-0.8,0-1.5-0.9-1.5-1.9v-0.2H24v0.2C24,29.2,23.3,30.1,22.5,30.1z"/>
</g>
</svg>
