<?xml version="1.0" encoding="utf-8"?>
<!-- Generator: Adobe Illustrator 22.0.1, SVG Export Plug-In . SVG Version: 6.00 Build 0)  -->
<svg version="1.1" id="Vrstva_1" xmlns="http://www.w3.org/2000/svg" xmlns:xlink="http://www.w3.org/1999/xlink" x="0px" y="0px"
	 viewBox="0 0 32.4 31.7" style="enable-background:new 0 0 32.4 31.7;" xml:space="preserve">
<style type="text/css">
	.st0{fill:#1D1D1B;}
</style>
<g>
	<path class="st0" d="M31.8,10.2c-0.8-0.8-2.1-0.8-2.9,0c-0.6,0.6-0.8,1.6-0.4,2.4l-4.9,4.9c-0.6-0.3-1.2-0.3-1.8,0l-4.9-4.9
		c0.4-0.8,0.2-1.7-0.4-2.4c-0.8-0.8-2.1-0.8-2.9,0c-0.6,0.6-0.8,1.6-0.4,2.4l-4.9,4.9c-0.8-0.3-1.7-0.2-2.3,0.4
		c-0.4,0.4-0.6,0.9-0.6,1.5c0,0.6,0.2,1.1,0.6,1.5c0.4,0.4,0.9,0.6,1.5,0.6s1.1-0.2,1.5-0.6c0.4-0.4,0.6-0.9,0.6-1.5
		c0-0.3-0.1-0.6-0.2-0.9l4.9-4.9c0.3,0.1,0.6,0.2,0.9,0.2c0.3,0,0.6-0.1,0.9-0.2l4.9,4.9c-0.1,0.3-0.2,0.6-0.2,0.9
		c0,0.6,0.2,1.1,0.6,1.5c0.4,0.4,0.9,0.6,1.5,0.6c0.6,0,1.1-0.2,1.5-0.6c0.4-0.4,0.6-0.9,0.6-1.5c0-0.3-0.1-0.6-0.2-0.9l4.9-4.9
		c0.3,0.1,0.6,0.2,0.9,0.2c0.6,0,1.1-0.2,1.5-0.6C32.6,12.4,32.6,11,31.8,10.2z M7.9,19.8c-0.3,0.3-0.7,0.3-1,0
		c-0.1-0.1-0.2-0.3-0.2-0.5c0-0.2,0.1-0.4,0.2-0.5c0.1-0.1,0.3-0.2,0.5-0.2s0.4,0.1,0.5,0.2C8,19,8.1,19.2,8.1,19.3
		C8.1,19.5,8,19.7,7.9,19.8z M14.6,12.2c-0.3-0.3-0.3-0.7,0-1c0.1-0.1,0.3-0.2,0.5-0.2c0.2,0,0.4,0.1,0.5,0.2c0.3,0.3,0.3,0.7,0,1
		C15.3,12.4,14.8,12.4,14.6,12.2z M23.2,19.8c-0.3,0.3-0.7,0.3-1,0c-0.1-0.1-0.2-0.3-0.2-0.5c0-0.2,0.1-0.4,0.2-0.5
		c0.1-0.1,0.3-0.2,0.5-0.2c0.2,0,0.4,0.1,0.5,0.2c0.1,0.1,0.2,0.3,0.2,0.5C23.4,19.5,23.3,19.7,23.2,19.8z M30.9,12.2
		c-0.3,0.3-0.7,0.3-1,0c-0.3-0.3-0.3-0.7,0-1c0.1-0.1,0.3-0.2,0.5-0.2c0.2,0,0.4,0.1,0.5,0.2C31.1,11.5,31.1,11.9,30.9,12.2z"/>
	<path class="st0" d="M27.3,28.3h-1.4v2.1h-3.8v-2.1h-1.4v2.1h-3.8v-2.1h-1.4v2.1h-3.8v-2.1h-1.4v2.1H6.6v-2.1H5.2v2.1H1.4v-3.8h2.1
		v-1.4H1.4v-3.8h2.1V20H1.4v-3.8h2.1v-1.4H1.4V11h2.1V9.7H1.4V5.9h2.1V4.5H1.4V0H0V31c0,0.4,0.3,0.7,0.7,0.7h31.1v-1.4h-4.5V28.3z"
		/>
</g>
</svg>
