<?xml version="1.0" encoding="utf-8"?>
<!-- Generator: Adobe Illustrator 22.0.1, SVG Export Plug-In . SVG Version: 6.00 Build 0)  -->
<svg version="1.1" id="Vrstva_1" xmlns="http://www.w3.org/2000/svg" xmlns:xlink="http://www.w3.org/1999/xlink" x="0px" y="0px"
	 viewBox="0 0 18.2 32.9" style="enable-background:new 0 0 18.2 32.9;" xml:space="preserve">
<style type="text/css">
	.st0{fill:#1D1D1B;}
</style>
<g>
	<g>
		<path class="st0" d="M17,11.8L10.4,6C10,5.7,9.6,5.5,9.1,5.5C8.6,5.5,8.2,5.7,7.8,6L5.5,8C5.3,7.5,5.3,7,5.3,6.5
			c0-1.3,0.4-2.6,1.2-3.5c0.7-0.9,1.7-1.4,2.6-1.4c2.1,0,3.8,2.2,3.8,4.9c0,0.4,0.4,0.8,0.8,0.8c0.4,0,0.8-0.4,0.8-0.8
			c0-3.6-2.4-6.5-5.4-6.5c-1.5,0-2.9,0.7-3.9,2c-1,1.2-1.5,2.8-1.5,4.5c0,1,0.2,1.9,0.5,2.7l-2.9,2.6c-0.7,0.6-1.2,1.6-1.2,2.6v14.5
			c0,2.2,1.8,4.1,4.1,4.1h10c2.2,0,4.1-1.8,4.1-4.1V14.3C18.1,13.4,17.7,12.4,17,11.8L17,11.8z M16.5,28.9c0,1.4-1.1,2.4-2.4,2.4
			h-10c-1.4,0-2.4-1.1-2.4-2.4V14.3c0-0.5,0.2-1,0.6-1.3l2.7-2.3L5.2,11c1,1.3,2.4,2,3.9,2c0.4,0,0.8-0.4,0.8-0.8
			c0-0.4-0.4-0.8-0.8-0.8c-1,0-1.9-0.5-2.6-1.4C6.3,9.8,6.2,9.7,6.2,9.6l2.7-2.4C9,7.1,9,7.1,9.1,7.1c0.1,0,0.1,0,0.2,0.1l6.6,5.8
			c0.4,0.3,0.6,0.8,0.6,1.3L16.5,28.9L16.5,28.9z M16.5,28.9"/>
	</g>
	<g>
		<path class="st0" d="M9.3,27.6c0,0.4-0.3,0.7-0.7,0.7c-0.3,0-0.5-0.1-0.6-0.3l-1.8-2.6l-0.5,0.8v1.4c0,0.4-0.3,0.7-0.7,0.7
			c-0.4,0-0.7-0.3-0.7-0.7v-6c0-0.4,0.3-0.7,0.7-0.7c0.4,0,0.7,0.3,0.7,0.7v2.7l2.2-3.1C8,21,8.2,20.8,8.4,20.8
			c0.4,0,0.7,0.3,0.7,0.7c0,0.1,0,0.3-0.1,0.4l-1.8,2.5l2,2.8C9.3,27.3,9.3,27.5,9.3,27.6z"/>
		<path class="st0" d="M12.4,22.8c0.5,0,1,0.2,1.3,0.4c0.2,0.1,0.3,0.3,0.3,0.5c0,0.3-0.3,0.6-0.6,0.6c-0.1,0-0.2,0-0.3-0.1
			C12.9,24,12.8,24,12.5,24c-0.8,0-1.2,0.7-1.2,1.6c0,0.9,0.5,1.6,1.2,1.6c0.2,0,0.4-0.1,0.6-0.2c0.1-0.1,0.2-0.1,0.3-0.1
			c0.3,0,0.6,0.3,0.6,0.6c0,0.2-0.1,0.4-0.3,0.5c-0.3,0.2-0.7,0.4-1.3,0.4c-1.5,0-2.4-1.2-2.4-2.8C10,24,10.9,22.8,12.4,22.8z
			 M13.6,20.6c0,0.1,0,0.1-0.1,0.2l-0.5,0.8c-0.1,0.2-0.3,0.3-0.5,0.3h-0.4c-0.2,0-0.5-0.1-0.6-0.3l-0.4-0.8c0-0.1-0.1-0.1-0.1-0.2
			c0-0.2,0.2-0.4,0.4-0.4c0.1,0,0.2,0,0.3,0.1l0.6,0.9l0.6-0.9c0.1-0.1,0.2-0.1,0.3-0.1C13.4,20.3,13.6,20.4,13.6,20.6z"/>
	</g>
</g>
</svg>
