<?xml version="1.0" encoding="utf-8"?>
<!-- Generator: Adobe Illustrator 22.0.1, SVG Export Plug-In . SVG Version: 6.00 Build 0)  -->
<svg version="1.1" id="Vrstva_1" xmlns="http://www.w3.org/2000/svg" xmlns:xlink="http://www.w3.org/1999/xlink" x="0px" y="0px"
	 viewBox="0 0 27.1 31.6" style="enable-background:new 0 0 27.1 31.6;" xml:space="preserve">
<style type="text/css">
	.st0{fill:#1D1D1B;}
</style>
<path class="st0" d="M19.3,18.1L19.3,18.1l-0.8-1.7c-0.1-0.2-0.2-0.3-0.4-0.3c-0.1,0-0.3,0-0.4,0v-0.6c1.5-1.3,2.4-3.4,2.5-5.7h0
	V6.2c0,0,0,0,0,0V5.8c0-3.1-2.2-5.7-4.9-5.7h-3.7C9,0.1,6.7,2.6,6.7,5.8v4.1h0c0.1,2.2,1,4.2,2.4,5.6c0,0,0,0,0,0v0.7
	c-0.1-0.1-0.3-0.1-0.4,0c-0.2,0-0.3,0.2-0.4,0.4l-0.6,1.7H7.7c-4.3,0-7.7,3.5-7.7,7.7v5.8h12c0,0,0,0,0,0c0,0,0,0,0,0h3c0,0,0,0,0,0
	c0,0,0,0,0,0h12v-5.8C27.1,21.6,23.6,18.1,19.3,18.1z M18.3,18.7l-2.7,4.1l-1.4-2.4l3.5-2.8L18.3,18.7z M13.6,24.6
	C13.6,24.6,13.6,24.6,13.6,24.6l0.8,5.9h-1.7L13.6,24.6z M13.5,23.4c-0.2,0-0.5-0.4-0.6-1l0.6-1l0.6,1.1
	C14.1,23,13.8,23.4,13.5,23.4z M16.6,17l-3.1,2.5L10.3,17v-0.7c1,0.6,2,0.9,3.2,0.9c1.1,0,2.2-0.3,3.1-0.9V17z M11.7,1.2h3.7
	c2.1,0,3.8,2,3.8,4.5c-3,0.3-6-1-7.9-3.5c0,0,0,0,0,0c0,0,0,0,0,0c0,0,0,0,0,0c0,0,0,0,0,0c0,0,0,0,0,0c0,0,0,0,0,0c0,0,0,0-0.1,0
	c0,0,0,0,0,0c0,0,0,0,0,0c0,0,0,0-0.1,0c0,0,0,0-0.1,0c0,0,0,0-0.1,0c0,0,0,0-0.1,0c0,0,0,0,0,0c0,0,0,0-0.1,0c0,0,0,0,0,0
	c0,0,0,0-0.1,0c0,0,0,0,0,0c0,0,0,0,0,0c0,0,0,0,0,0c0,0,0,0,0,0c0,0,0,0,0,0c0,0,0,0,0,0c0,0,0,0,0,0c0,0,0,0,0,0.1c0,0,0,0,0,0
	C9.9,4.1,9,5.5,7.9,6.6V5.8C7.9,3.2,9.6,1.2,11.7,1.2z M7.9,8.1c1.4-1,2.5-2.5,3.2-4.3c1.9,2,4.4,3.2,7.1,3.2c0.3,0,0.7,0,1-0.1v2.4
	c0,3.7-2.5,6.7-5.6,6.7c-3.1,0-5.6-3-5.6-6.7V8.1z M9.2,17.6l3.6,2.8l-1.4,2.4l-2.7-4L9.2,17.6z M1.1,25.8c0-3.6,2.9-6.6,6.5-6.6
	l3.3,5c0.1,0.2,0.3,0.3,0.5,0.3c0,0,0,0,0,0c0.2,0,0.4-0.1,0.5-0.3l0.2-0.4c0.1,0.1,0.2,0.2,0.2,0.3l-0.9,6.4H5.6v-4.1
	c0-0.3-0.3-0.6-0.6-0.6c-0.3,0-0.6,0.3-0.6,0.6v4.1H1.1V25.8z M25.9,30.5h-3.3v-4.1c0-0.3-0.3-0.6-0.6-0.6c-0.3,0-0.6,0.3-0.6,0.6
	v4.1h-5.9L14.7,24c0.1-0.1,0.1-0.1,0.2-0.2l0.2,0.4c0.1,0.2,0.3,0.3,0.5,0.3c0,0,0,0,0,0c0.2,0,0.4-0.1,0.5-0.3l3.2-5h0
	c3.6,0,6.6,2.9,6.6,6.6V30.5z"/>
</svg>
