<svg id="Vrstva_1" xmlns="http://www.w3.org/2000/svg" viewBox="0 0 31.1 31.7"><style>.st0{fill:#1d1d1b}</style><path class="st0" d="M3.5 30.4V0H2.1v4.5H0v1.3h2.1v3.9H0V11h2.1v3.8H0v1.4h2.1V20H0v1.4h2.1v3.8H0v1.4h2.1v5.2h29v-1.4z"/><path class="st0" d="M9.6 22.3h4.7v-6.1h2v7.6H21v-7.6h2v5.3h4.7v-6.7h-3.3v-6h-4.7v6.1h-2V7.2H13v7.6h-2V9.5H6.2v6.7h3.3v6.1zm16.7-6.1v3.9h-2v-3.9h2zM21 10.1h2v4.7h-2v-4.7zm-1.4 6.1v6.2h-2v-6.2h2zm-5.3-7.6h2v6.2h-2V8.6zm-1.4 7.6v4.7h-2v-4.7h2zm-5.3-1.4v-3.9h2v3.9h-2z"/></svg>