<svg id="Vrstva_1" xmlns="http://www.w3.org/2000/svg" viewBox="0 0 25.1 31.7"><style>.st0{fill:#1d1d1b}</style><path class="st0" d="M9.9 7.7c.3.2.7.2.9-.1.2-.3.2-.7-.1-.9 0 0-.2-.2-.2-1 0-.4.1-.5.4-1l.1-.2c.4-.5 1-1.2 1.3-1.8.1-.2.2-.4.2-.5.1.1.3.2.4.3.8.6 1.4 1.2 1.7 2 .3 1 .1 1.9-.7 2.5-.3.2-.3.7-.1.9.1.1.3.2.5.2s.3-.1.4-.2c1.1-1 1.5-2.3 1-3.9-.3-1.3-1.3-2-2.1-2.7-.5-.4-.9-.7-1.2-1.1-.1-.1-.4-.2-.7 0-.3.2-.4.5-.3.8 0 .1 0 .5-.3 1.2-.2.5-.7 1-1.1 1.5l-.1.1c-.5.6-.8 1-.8 1.9 0 .4.1 1.4.8 2z"/><path class="st0" d="M25.2 27.1c0-.1 0-.3-.1-.4v-7.9c0-1.9-1.2-3.5-2.6-3.5h-6.9V9.6c0-.4-.3-.7-.7-.7h-1.6V7.1c0-.4-.3-.7-.7-.7-.4 0-.7.3-.7.7v1.8h-1.6c-.4 0-.7.3-.7.7v5.7H2.7c-1.5 0-2.6 1.6-2.6 3.5v7.9c-.1.1-.1.2-.1.4 0 .1 0 .3.1.4v.7c0 1.9 1.2 3.5 2.6 3.5h19.7c1.5 0 2.6-1.6 2.6-3.5v-.7c.2-.2.2-.3.2-.4zm-24-4.7c.8.6 1.9 1 3.2.5.8-.3 1.4-.9 1.9-1.3.8-.8.9-.7 1.2-.5.4.3.7.6 1 .9.7.7 1.5 1.7 3.5 1.5 1.5-.2 2.3-1.1 2.9-1.8.5-.6.8-.9 1.1-.8.4 0 .7.4 1.2 1 .6.8 1.5 2 3 2h.2c1.5-.1 2.8-.9 3.5-1.6v4.1H1.2v-4zM11 10.3h3.2v5H11v-5zm-8.3 6.6h19.7c.8 0 1.5.9 1.5 1.9v1c-.2 0-.4.2-.6.3 0 0-1.3 1.7-3.1 1.8-.7 0-1.1-.4-1.7-1.3-.6-.8-1.3-1.7-2.5-1.7-1.3 0-2 .8-2.6 1.5-.5.6-.9 1.1-1.8 1.2-1.1.1-1.4-.2-2-.9-.4-.4-.8-.9-1.4-1.2-1.5-.9-2.6.1-3.3.7-.4.4-.8.8-1.3 1-1.1.4-1.9-.7-2-.7-.1-.2-.3-.3-.6-.3v-1.3c.2-1.2.9-2 1.7-2zm19.8 13.2H2.7c-.8 0-1.5-.9-1.5-1.9V28H24v.2c0 1-.7 1.9-1.5 1.9z"/></svg>