<svg viewBox="0 -0.003 108.192 17.583" xmlns="http://www.w3.org/2000/svg" xmlns:bx="https://boxy-svg.com"><path d="M4.88 4.36a4.53 4.53 0 0 1 4.74 4.36c0 1.06-.63 1.44-1.77 1.44H3a2.2 2.2 0 0 0 2.36 1.65A3.85 3.85 0 0 0 7 11.43a.99.99 0 0 1 .48-.12 1.12 1.12 0 0 1 1.11 1.14 1.141 1.141 0 0 1-.67 1A6.643 6.643 0 0 1 5 14.1 4.75 4.75 0 0 1-.06 9.22a4.79 4.79 0 0 1 4.94-4.86zM3 8.24h3.8a1.79 1.79 0 0 0-1.92-1.59A1.84 1.84 0 0 0 3 8.24zm7.56 3.98a1.19 1.19 0 0 1 1.73-1.06 6.083 6.083 0 0 0 2.5.71c.88 0 1.25-.29 1.25-.69 0-.4-.64-.65-1.6-.81-1.57-.27-3.8-.59-3.8-2.95 0-1.64 1.4-3.06 4-3.06a6.423 6.423 0 0 1 3 .73 1.1 1.1 0 1 1-1 1.96 4.316 4.316 0 0 0-2-.52c-.69 0-1.17.23-1.17.64 0 .41.5.57 1.48.74 1.58.27 3.92.66 3.92 3.12 0 1.76-1.56 3.07-4.23 3.07a7.35 7.35 0 0 1-3.42-.83 1.22 1.22 0 0 1-.66-1.05zm16.12.34V8.47c0-1.13-.6-1.5-1.54-1.5a2.25 2.25 0 0 0-1.78.91v4.68A1.5 1.5 0 0 1 21.88 14a1.48 1.48 0 0 1-1.48-1.48V2.36c0-.817.663-1.48 1.48-1.48a1.5 1.5 0 0 1 1.48 1.48v3.36a4.178 4.178 0 0 1 3.2-1.36c2.12 0 3.08 1.19 3.08 2.9v5.3A1.5 1.5 0 0 1 28.16 14a1.48 1.48 0 0 1-1.48-1.44zm4.49-3.34a4.79 4.79 0 0 1 5.06-4.86 4.78 4.78 0 0 1 5.07 4.86 4.79 4.79 0 0 1-5.07 4.88 4.81 4.81 0 0 1-5.06-4.88zm7.09 0c0-1.54-1.667-2.502-3-1.732-.619.357-1 1.017-1 1.732 0 1.54 1.667 2.502 3 1.732.619-.357 1-1.017 1-1.732zm14.37 0c0 3.15-1.75 4.88-4.07 4.88a3.408 3.408 0 0 1-2.75-1.31v3.31a1.48 1.48 0 0 1-1.48 1.48 1.5 1.5 0 0 1-1.48-1.48V5.9a1.5 1.5 0 0 1 1.48-1.54 1.58 1.58 0 0 1 1.52 1.27 3.389 3.389 0 0 1 2.71-1.27c2.32 0 4.07 1.73 4.07 4.86zm-3 0a2.06 2.06 0 0 0-2-2.25 2.39 2.39 0 0 0-1.77.85v2.82a2.457 2.457 0 0 0 1.77.85 2.06 2.06 0 0 0 1.99-2.27h.01zM54 1.69a1.69 1.69 0 0 1 3.38 0 1.69 1.69 0 0 1-3.38 0zm.21 10.87V5.9a1.5 1.5 0 0 1 3 0v6.66a1.5 1.5 0 0 1-3 0zm4.57-.34A1.19 1.19 0 0 1 60 11c.188.002.372.046.54.13a6.003 6.003 0 0 0 2.5.71c.88 0 1.24-.29 1.24-.69 0-.4-.63-.65-1.59-.81-1.58-.27-3.8-.59-3.8-2.95 0-1.64 1.4-3.06 4-3.06a6.423 6.423 0 0 1 3 .73 1.118 1.118 0 0 1-1 2 4.34 4.34 0 0 0-2-.52c-.69 0-1.17.23-1.17.64 0 .41.5.57 1.48.74 1.57.27 3.92.66 3.92 3.12 0 1.76-1.56 3.07-4.23 3.07a7.35 7.35 0 0 1-3.42-.83 1.222 1.222 0 0 1-.69-1.06zm15.48.54a1.221 1.221 0 0 1-.94 1.24 4.66 4.66 0 0 1-1.21.15c-1.88 0-2.9-.94-2.9-2.73V7.17h-.42a1.31 1.31 0 0 1-1.29-1.29c0-.712.578-1.29 1.29-1.29h.42V3.36a1.47 1.47 0 1 1 2.94 0v1.23h.77c.712 0 1.29.578 1.29 1.29a1.31 1.31 0 0 1-1.29 1.29h-.77v3.38a.84.84 0 0 0 .77.94h.29a1.19 1.19 0 0 1 1.05 1.27zm5.57-8.4a4.53 4.53 0 0 1 4.75 4.36c0 1.06-.64 1.44-1.77 1.44H78a2.2 2.2 0 0 0 2.36 1.65 3.85 3.85 0 0 0 1.64-.38.917.917 0 0 1 .48-.12 1.12 1.12 0 0 1 1.11 1.14 1.141 1.141 0 0 1-.67 1 6.648 6.648 0 0 1-2.9.63 4.75 4.75 0 0 1-5.12-4.86 4.78 4.78 0 0 1 4.93-4.86zm-1.9 3.88h3.82a1.77 1.77 0 0 0-1.92-1.59 1.84 1.84 0 0 0-1.9 1.59zm9.57 2.25c1.393 0 2.264 1.508 1.567 2.715-.696 1.207-2.438 1.207-3.135 0a1.813 1.813 0 0 1-.242-.915 1.82 1.82 0 0 1 1.81-1.8zm8.11-6.13a4.717 4.717 0 0 1 2.67.73c.431.209.708.641.72 1.12a1.33 1.33 0 0 1-1.33 1.32 1.274 1.274 0 0 1-.69-.19A1.94 1.94 0 0 0 95.74 7a2.1 2.1 0 0 0-2.17 2.25 2.12 2.12 0 0 0 2.17 2.27c.427.011.845-.119 1.19-.37.202-.125.433-.197.67-.21a1.33 1.33 0 0 1 1.33 1.35 1.26 1.26 0 0 1-.65 1.11 4.717 4.717 0 0 1-2.67.73 4.79 4.79 0 0 1-5.08-4.88 4.78 4.78 0 0 1 5.08-4.89zm4.39 8.05c.004-.333.116-.656.32-.92l3.58-4.32h-2.62A1.3 1.3 0 0 1 100 5.88a1.28 1.28 0 0 1 1.28-1.29h5.4A1.38 1.38 0 0 1 108.05 6c0 .331-.113.652-.32.91l-3.63 4.43h2.74a1.28 1.28 0 0 1 1.29 1.27 1.29 1.29 0 0 1-1.29 1.29h-5.41a1.45 1.45 0 0 1-1.43-1.49z" fill="#1d1d1b" bx:origin="0.001 0"/></svg>