<svg viewBox="0 0 127.9 27.3" xmlns="http://www.w3.org/2000/svg"><path class="st0" d="M4.9 4.4c2.7 0 4.7 2 4.7 4.4 0 1.1-.6 1.4-1.8 1.4H3c.2.9 1 1.7 2.4 1.7.5 0 1.1-.1 1.6-.4.1-.1.3-.1.5-.1.6 0 1.1.5 1.1 1.1 0 .5-.3.8-.7 1-.9.4-1.9.6-2.9.6-2.9 0-5.1-1.9-5.1-4.9 0-2.7 2.1-4.8 5-4.8zM3 8.2h3.8c-.1-.6-.6-1.6-1.9-1.6-1.3 0-1.8 1-1.9 1.6zm7.6 4c0-.7.5-1.2 1.2-1.2.2 0 .4.1.5.1.8.4 1.7.7 2.5.7.9 0 1.2-.3 1.2-.7 0-.5-.6-.7-1.6-.8-1.6-.3-3.8-.6-3.8-3 0-1.6 1.4-3.1 4-3.1 1.1 0 2.1.3 3 .7.3.2.6.5.6 1 0 .6-.5 1.1-1.1 1.1-.2 0-.4-.1-.5-.1-.6-.3-1.3-.5-2-.5s-1.2.2-1.2.6c0 .4.5.6 1.5.7 1.6.3 3.9.7 3.9 3.1 0 1.8-1.6 3.1-4.2 3.1-1.2 0-2.4-.3-3.4-.8-.4 0-.6-.4-.6-.9zm16.1.4V8.5c0-1.1-.6-1.5-1.5-1.5s-1.4.5-1.8.9v4.7c0 .8-.7 1.5-1.5 1.5s-1.5-.7-1.5-1.5V2.4c0-.8.7-1.5 1.5-1.5s1.5.7 1.5 1.5v3.4c.6-.7 1.7-1.4 3.2-1.4 2.1 0 3.1 1.2 3.1 2.9v5.3c0 .8-.7 1.5-1.5 1.5-.9-.1-1.5-.7-1.5-1.5zm4.5-3.4c0-2.6 1.9-4.9 5.1-4.9 3.2 0 5.1 2.2 5.1 4.9s-1.9 4.9-5.1 4.9c-3.2 0-5.1-2.3-5.1-4.9zm7.1 0c0-1.2-.7-2.2-2-2.2s-2 1-2 2.2c0 1.2.7 2.3 2 2.3 1.2 0 2-1 2-2.3zm14.3 0c0 3.2-1.7 4.9-4.1 4.9-1 0-2-.4-2.7-1.3v3.3c0 .8-.7 1.5-1.5 1.5s-1.5-.7-1.5-1.5V5.9c0-.8.6-1.5 1.5-1.5.7 0 1.4.6 1.5 1.3.7-.9 1.7-1.3 2.7-1.3 2.4 0 4.1 1.7 4.1 4.8zm-3 0c0-1.4-.9-2.2-2-2.2-.6 0-1.4.3-1.8.8v2.8c.4.5 1.1.8 1.8.8 1.1.1 2-.8 2-2.2zM54 1.7c0-1 .7-1.7 1.7-1.7s1.7.7 1.7 1.7-.7 1.7-1.7 1.7S54 2.6 54 1.7zm.2 10.9V5.9c0-.8.7-1.5 1.5-1.5s1.5.7 1.5 1.5v6.7c0 .8-.7 1.5-1.5 1.5-.8-.1-1.5-.7-1.5-1.5zm4.6-.4c0-.7.5-1.2 1.2-1.2.2 0 .4.1.5.1.8.4 1.7.7 2.5.7.9 0 1.2-.3 1.2-.7 0-.5-.6-.7-1.6-.8-1.6-.3-3.8-.6-3.8-3 0-1.6 1.4-3.1 4-3.1 1.1 0 2.1.3 3 .7.3.2.6.5.6 1 0 .6-.5 1.1-1.1 1.1-.2 0-.4-.1-.5-.1-.6-.3-1.3-.5-2-.5s-1.2.2-1.2.6c0 .4.5.6 1.5.7 1.6.3 3.9.7 3.9 3.1 0 1.8-1.6 3.1-4.2 3.1-1.2 0-2.4-.3-3.4-.8-.3 0-.6-.4-.6-.9zm15.5.6c0 .6-.4 1.1-.9 1.2-.3.1-.7.2-1.2.2-1.9 0-2.9-.9-2.9-2.7V7.2h-.4c-.7 0-1.3-.6-1.3-1.3 0-.7.6-1.3 1.3-1.3h.4V3.4c0-.8.7-1.5 1.5-1.5s1.5.7 1.5 1.5v1.2h.8c.7 0 1.3.6 1.3 1.3 0 .7-.6 1.3-1.3 1.3h-.8v3.4c0 .5.3.9.8.9h.3c.4 0 .9.6.9 1.3zm5.5-8.4c2.7 0 4.7 2 4.7 4.4 0 1.1-.6 1.4-1.8 1.4H78c.2.9 1 1.7 2.4 1.7.5 0 1.1-.1 1.6-.4.1-.1.3-.1.5-.1.6 0 1.1.5 1.1 1.1 0 .5-.3.8-.7 1-.9.4-1.9.6-2.9.6-2.9 0-5.1-1.9-5.1-4.9 0-2.7 2-4.8 4.9-4.8zm-1.9 3.8h3.8c-.1-.7-.6-1.6-1.9-1.6-1.3 0-1.8 1-1.9 1.6zm9.6 2.3c1 0 1.8.8 1.8 1.8s-.8 1.8-1.8 1.8-1.8-.8-1.8-1.8.8-1.8 1.8-1.8zm8.1-6.1c1.1 0 2 .3 2.7.7.4.2.7.6.7 1.1 0 .7-.6 1.3-1.3 1.3-.2 0-.5-.1-.7-.2-.4-.2-.8-.3-1.3-.3-1.2 0-2.2.8-2.2 2.2s.9 2.3 2.2 2.3c.5 0 .8-.1 1.2-.4.2-.1.4-.2.7-.2.7 0 1.3.6 1.3 1.3 0 .5-.2.9-.7 1.1-.7.4-1.5.7-2.7.7-2.9 0-5.1-2-5.1-4.9.1-2.8 2.3-4.7 5.2-4.7zm4.4 8c0-.3.1-.7.3-.9l3.6-4.3h-2.6c-.7 0-1.3-.6-1.3-1.3 0-.7.6-1.3 1.3-1.3h5.4c.8 0 1.4.6 1.4 1.4 0 .3-.1.7-.3.9l-3.6 4.4h2.7c.7 0 1.3.6 1.3 1.3s-.6 1.3-1.3 1.3h-5.4c-.9 0-1.5-.7-1.5-1.5z"/><path class="st1" d="M0 25.3v-4.9c0-.2.1-.4.3-.4h2.3c.2 0 .3.1.3.3s-.1.3-.3.3h-2v1.9h1.9c.2 0 .3.1.3.3 0 .2-.1.3-.3.3H.7v2h2c.2 0 .3.1.3.3 0 .2-.1.3-.3.3H.3c-.2-.1-.3-.2-.3-.4zm3.5-1.7c0-.1.1-.3.3-.3H5c.1 0 .3.1.3.3 0 .2-.1.3-.3.3H3.7c-.1 0-.2-.1-.2-.3zm2.3 1.5c0-.1.1-.3.3-.3.1 0 .1 0 .2.1.2.2.5.3.9.3.5 0 .8-.3.8-.6 0-.4-.4-.6-.8-.8-.6-.2-1.2-.5-1.2-1.2 0-.6.5-1.1 1.3-1.1.4 0 .8.1 1.1.4.1 0 .1.1.1.2s-.1.2-.2.2-.1 0-.2-.1c-.4-.1-.6-.2-.9-.2-.4 0-.7.2-.7.6 0 .4.4.6.8.7.6.2 1.2.5 1.2 1.3 0 .7-.5 1.2-1.4 1.2-.5 0-.9-.1-1.2-.4-.1-.1-.1-.2-.1-.3zm5.7.3v-2.6c0-.5-.3-.7-.7-.7-.4 0-.8.3-1 .6v2.7c0 .2-.1.3-.3.3-.2 0-.3-.1-.3-.3v-5.1c0-.2.1-.3.3-.3.2 0 .3.1.3.3v1.9c.2-.4.7-.7 1.2-.7.7 0 1 .3 1 1.1v2.8c0 .2-.1.3-.3.3 0 0-.2-.2-.2-.3zm1.5-1.8c0-1.1.6-2.1 1.6-2.1 1.1 0 1.7 1 1.7 2.1s-.6 2.1-1.7 2.1c-1 .1-1.6-.9-1.6-2.1zm2.7 0c0-.8-.3-1.6-1-1.6s-1 .8-1 1.6.3 1.6 1 1.6 1-.8 1-1.6zm4.7 0c0 1.3-.5 2.1-1.5 2.1-.4 0-.8-.2-1.1-.7v1.9c0 .2-.1.3-.3.3-.2 0-.3-.1-.3-.3v-5.1c0-.2.1-.3.3-.3.2 0 .3.1.3.3v.3c.2-.4.6-.7 1.1-.7.9.1 1.5.9 1.5 2.2zm-.7 0c0-.9-.3-1.6-1-1.6-.4 0-.8.3-.9.7v1.9c.2.4.5.7.9.7.7-.1 1-.8 1-1.7zm1.6 3.2h.1c.2 0 .4-.1.5-.4l.2-.6-1.2-3.8v-.1c0-.2.1-.3.3-.3.1 0 .3.1.3.2l1 3.1 1-3.2c0-.1.2-.2.3-.2.2 0 .3.1.3.3v.1l-1.5 4.5c-.2.6-.5.8-1 .8h-.1c-.2 0-.3-.1-.3-.3-.1 0 0-.1.1-.1zm8-4.2v2.8c0 .2-.1.3-.3.3-.2 0-.3-.1-.3-.3v-2.6c0-.5-.2-.7-.6-.7-.4 0-.8.3-1 .6v2.7c0 .2-.1.3-.3.3-.2 0-.3-.1-.3-.3v-3.5c0-.2.1-.3.3-.3.2 0 .3.1.3.3v.3c.2-.3.7-.7 1.2-.7.7 0 1 .4 1 1.1zm3.8.2v2.6c0 .2-.1.3-.3.3-.2 0-.3-.1-.3-.3v-.2c-.2.4-.6.5-1.1.5-.7 0-1.2-.5-1.2-1.4s.6-1.3 1.2-1.3c.4 0 .8.2 1.1.5v-.7c0-.6-.3-.9-.8-.9-.3 0-.6.1-.8.3 0 0-.1.1-.2.1s-.3-.1-.3-.3c0-.1 0-.2.1-.2.4-.3.8-.5 1.2-.5.9.2 1.4.6 1.4 1.5zm-.6 2V24c-.2-.3-.5-.5-.9-.5-.5 0-.8.4-.8.9s.3.9.8.9c.4 0 .7-.2.9-.5zm4.8-1.2c0 1.3-.5 2.1-1.5 2.1-.4 0-.8-.3-1.1-.7v.3c0 .2-.1.3-.3.3-.2 0-.3-.1-.3-.3v-5.1c0-.2.1-.3.3-.3.2 0 .3.1.3.3v1.9c.2-.5.6-.7 1.1-.7 1 .1 1.5 1 1.5 2.2zm-.6 0c0-.9-.3-1.6-1-1.6-.4 0-.8.3-.9.7v1.9c.2.4.5.7.9.7.7-.1 1-.8 1-1.7zm1.5 1.8v-3.5c0-.2.1-.3.3-.3.2 0 .3.1.3.3v3.5c0 .2-.1.3-.3.3-.1 0-.3-.2-.3-.3zm.4-4.6c-.1 0-.2-.1-.2-.2v-.1l.7-.9s.1-.1.2-.1.2.1.2.2 0 .1-.1.2l-.8.9c.1 0 0 0 0 0zm1.1 4.5c0-.1 0-.1.1-.2l1.7-3H40c-.1 0-.3-.1-.3-.3 0-.2.1-.3.3-.3h2c.2 0 .3.1.3.3 0 .1 0 .1-.1.2l-1.7 3.1H42c.1 0 .3.1.3.3 0 .2-.1.3-.3.3h-2c-.1-.1-.3-.2-.3-.4zm4.9-3.8c1.1 0 1.6 1 1.6 2 0 .2-.1.3-.4.3h-2.3c0 .8.4 1.4 1.2 1.4.3 0 .6-.1.8-.4 0 0 .1-.1.2-.1s.2.1.2.2 0 .1-.1.2c-.3.3-.7.5-1.2.5-1.1 0-1.7-.9-1.7-2.1.1-1.1.7-2 1.7-2zm-1 1.9h2c0-.6-.3-1.4-1-1.4s-1 .8-1 1.4zm6.3-.8v2.8c0 .2-.1.3-.3.3-.2 0-.3-.1-.3-.3v-2.6c0-.5-.2-.7-.6-.7-.4 0-.8.3-1 .6v2.7c0 .2-.1.3-.3.3-.2 0-.3-.1-.3-.3v-3.5c0-.2.1-.3.3-.3.2 0 .3.1.3.3v.3c.2-.3.7-.7 1.2-.7.7 0 1 .4 1 1.1zm2.6-1.1c1.1 0 1.6 1 1.6 2 0 .2-.1.3-.4.3h-2.3c0 .8.4 1.4 1.2 1.4.3 0 .6-.1.8-.4 0 0 .1-.1.2-.1s.2.1.2.2 0 .1-.1.2c-.3.3-.7.5-1.2.5-1.1 0-1.7-.9-1.7-2.1 0-1.1.7-2 1.7-2zm-1 1.9h2c0-.6-.3-1.4-1-1.4s-1 .8-1 1.4zm1-2.6c-.1 0-.2-.1-.2-.2v-.1l.7-.9s.1-.1.2-.1.2.1.2.2 0 .1-.1.2l-.8.9c.1 0 .1 0 0 0zm7.1 4.6c0 .2-.1.3-.3.3-.1 0-.2-.1-.2-.1L58 23.8l-.6.7v.8c0 .2-.1.3-.3.3-.2 0-.3-.1-.3-.3v-5.1c0-.2.1-.3.3-.3.2 0 .3.1.3.3v3.5l1.7-2.1c.1-.1.1-.1.2-.1.2 0 .3.1.3.3 0 .1 0 .1-.1.2l-1.2 1.4 1.2 1.8c.1.1.1.1.1.2zm5.8-1.8c0 1.3-.5 2.1-1.5 2.1-.4 0-.8-.2-1.1-.7v1.9c0 .2-.1.3-.3.3-.2 0-.3-.1-.3-.3v-5.1c0-.2.1-.3.3-.3.2 0 .3.1.3.3v.3c.2-.4.6-.7 1.1-.7.9.1 1.5.9 1.5 2.2zm-.6 0c0-.9-.3-1.6-1-1.6-.4 0-.8.3-.9.7v1.9c.2.4.5.7.9.7.6-.1 1-.8 1-1.7zm3.3-1.8c0 .1-.1.3-.3.3-.4 0-.7.3-.9.7v2.6c0 .2-.1.3-.3.3-.2 0-.3-.1-.3-.3v-3.5c0-.2.1-.3.3-.3.2 0 .3.1.3.3v.4c.2-.3.4-.5.7-.7.1 0 .1-.1.2-.1.2 0 .3.2.3.3zm.4 1.8c0-1.1.6-2.1 1.6-2.1 1.1 0 1.7 1 1.7 2.1s-.6 2.1-1.7 2.1c-1 .1-1.6-.9-1.6-2.1zm2.7 0c0-.8-.3-1.6-1-1.6s-1 .8-1 1.6.3 1.6 1 1.6 1-.8 1-1.6zm4.5-3.3v5.1c0 .2-.1.3-.3.3-.2 0-.3-.1-.3-.3v-.3c-.2.4-.6.7-1.1.7-.9 0-1.5-.8-1.5-2.1s.5-2.1 1.5-2.1c.4 0 .8.2 1.1.7v-1.9c0-.2.1-.3.3-.3.1-.1.3 0 .3.2zm-.6 4.3v-1.9c-.2-.4-.5-.7-.9-.7-.7 0-1 .7-1 1.6 0 .9.3 1.6 1 1.6.3 0 .7-.3.9-.6zm3.1-3.1c1.1 0 1.6 1 1.6 2 0 .2-.1.3-.4.3h-2.3c0 .8.4 1.4 1.2 1.4.3 0 .6-.1.8-.4 0 0 .1-.1.2-.1s.2.1.2.2 0 .1-.1.2c-.3.3-.7.5-1.2.5-1.1 0-1.7-.9-1.7-2.1.1-1.1.7-2 1.7-2zm-1 1.9h2c0-.6-.3-1.4-1-1.4s-1 .8-1 1.4zm3 3.9c-.1 0-.3-.1-.3-.3 0-.2.1-.3.2-.3h.1c.3 0 .4-.2.4-.6v-4.4c0-.2.1-.3.3-.3.2 0 .3.1.3.3v4.4c0 .7-.4 1.1-1 1.1.1.1 0 .1 0 .1zm.4-6.9c0-.2.2-.4.4-.4s.4.2.4.4-.2.4-.4.4-.4-.1-.4-.4zm1.7-.1c0-.2.2-.4.4-.4s.4.2.4.4-.2.4-.4.4c-.2.1-.4-.1-.4-.4zm.1 5.1v-3.5c0-.2.1-.3.3-.3.2 0 .3.1.3.3v3.5c0 .2-.1.3-.3.3-.1 0-.3-.2-.3-.3zm6.3-2.8v2.8c0 .2-.1.3-.3.3-.2 0-.3-.1-.3-.3v-2.6c0-.5-.2-.7-.6-.7-.4 0-.8.3-1 .6v2.7c0 .2-.1.3-.3.3-.2 0-.3-.1-.3-.3v-3.5c0-.2.1-.3.3-.3.2 0 .3.1.3.3v.3c.2-.3.7-.7 1.2-.7.7 0 1 .4 1 1.1zm2.6-1.1c1.1 0 1.6 1 1.6 2 0 .2-.1.3-.4.3h-2.3c0 .8.4 1.4 1.2 1.4.3 0 .6-.1.8-.4 0 0 .1-.1.2-.1s.2.1.2.2 0 .1-.1.2c-.3.3-.7.5-1.2.5-1.1 0-1.7-.9-1.7-2.1 0-1.1.7-2 1.7-2zm-1 1.9h2c0-.6-.3-1.4-1-1.4s-1 .8-1 1.4zm6.6.2c0 1.3-.5 2.1-1.5 2.1-.4 0-.8-.3-1.1-.7v.3c0 .2-.1.3-.3.3-.2 0-.3-.1-.3-.3v-5.1c0-.2.1-.3.3-.3.2 0 .3.1.3.3v1.9c.2-.5.6-.7 1.1-.7 1 .1 1.5 1 1.5 2.2zm-.6 0c0-.9-.3-1.6-1-1.6-.4 0-.8.3-.9.7v1.9c.2.4.5.7.9.7.6-.1 1-.8 1-1.7zm1.3 0c0-1.1.6-2.1 1.6-2.1 1.1 0 1.7 1 1.7 2.1s-.6 2.1-1.7 2.1c-1 .1-1.6-.9-1.6-2.1zm2.7 0c0-.8-.3-1.6-1-1.6s-1 .8-1 1.6.3 1.6 1 1.6 1-.8 1-1.6zm3.2-3.3c0-.2.2-.4.4-.4s.4.2.4.4-.2.4-.4.4c-.2.1-.4-.1-.4-.4zm.1 5.1v-3.5c0-.2.1-.3.3-.3.2 0 .3.1.3.3v3.5c0 .2-.1.3-.3.3-.1 0-.3-.2-.3-.3zm4.5-2.8v2.8c0 .2-.1.3-.3.3-.2 0-.3-.1-.3-.3v-2.6c0-.5-.2-.7-.6-.7-.4 0-.8.3-1 .6v2.7c0 .2-.1.3-.3.3-.2 0-.3-.1-.3-.3v-3.5c0-.2.1-.3.3-.3.2 0 .3.1.3.3v.3c.2-.3.7-.7 1.2-.7.7 0 1 .4 1 1.1zm3.9-.7v.1l-1.1 3.4c-.1.2-.2.3-.4.3s-.4-.1-.4-.3L109 22v-.1c0-.2.1-.3.3-.3.1 0 .3.1.3.2l1 3.2 1-3.2c0-.1.2-.2.3-.2-.1 0 .1.1.1.3zm2.1-.4c1.1 0 1.6 1 1.6 2 0 .2-.1.3-.4.3H113c0 .8.4 1.4 1.2 1.4.3 0 .6-.1.8-.4 0 0 .1-.1.2-.1s.2.1.2.2 0 .1-.1.2c-.3.3-.7.5-1.2.5-1.1 0-1.7-.9-1.7-2.1.1-1.1.7-2 1.7-2zm-1 1.9h2c0-.6-.3-1.4-1-1.4s-1 .8-1 1.4zm3.2 1.7c0-.1.1-.3.3-.3.1 0 .1 0 .2.1.2.2.5.3.9.3.5 0 .8-.3.8-.6 0-.4-.4-.6-.8-.8-.6-.2-1.2-.5-1.2-1.2 0-.6.5-1.1 1.3-1.1.4 0 .8.1 1.1.4.1 0 .1.1.1.2s-.1.2-.2.2-.1 0-.2-.1c-.2-.2-.5-.3-.8-.3-.4 0-.7.2-.7.6 0 .4.4.6.8.7.6.2 1.2.5 1.2 1.3 0 .7-.5 1.2-1.4 1.2-.5 0-.9-.1-1.2-.4-.1 0-.2-.1-.2-.2zm5.1.3c0 .1-.1.2-.1.2-.1.1-.3.1-.5.1-.6 0-.8-.3-.8-.9v-2.7h-.3c-.1 0-.3-.1-.3-.3 0-.1.1-.3.3-.3h.3v-.8c0-.2.1-.3.3-.3.2 0 .3.1.3.3v.8h.5c.1 0 .3.1.3.3 0 .2-.1.3-.3.3h-.5v2.6c0 .3.1.5.3.5.2 0 .2-.1.3-.1.1 0 .2.2.2.3zm.5-5.1c0-.2.2-.4.4-.4s.4.2.4.4-.2.4-.4.4c-.2.1-.4-.1-.4-.4zm.2 5.1v-3.5c0-.2.1-.3.3-.3.2 0 .3.1.3.3v3.5c0 .2-.1.3-.3.3-.2 0-.3-.2-.3-.3zm3.1-3.9c.4 0 .7.1 1 .4.1.1.1.1.1.2s-.1.3-.3.3c-.1 0-.1 0-.2-.1-.2-.2-.4-.2-.6-.2-.7 0-1.1.7-1.1 1.6 0 .9.4 1.6 1.1 1.6.2 0 .4-.1.6-.3 0 0 .1-.1.2-.1.2 0 .3.1.3.3 0 .1 0 .2-.1.2-.3.2-.6.4-1 .4-1 0-1.7-.9-1.7-2.1s.7-2.2 1.7-2.2zm1.9-1.2c0-.2.2-.4.4-.4s.4.2.4.4-.2.4-.4.4c-.2.1-.4-.1-.4-.4zm.1 5.1v-3.5c0-.2.1-.3.3-.3.2 0 .3.1.3.3v3.5c0 .2-.1.3-.3.3-.2 0-.3-.2-.3-.3z"/></svg>