<svg id="Vrstva_1" xmlns="http://www.w3.org/2000/svg" viewBox="0 0 32.4 31.7"><style>.st0{fill:#1d1d1b}</style><path class="st0" d="M31.8 10.2c-.8-.8-2.1-.8-2.9 0-.6.6-.8 1.6-.4 2.4l-4.9 4.9c-.6-.3-1.2-.3-1.8 0l-4.9-4.9c.4-.8.2-1.7-.4-2.4-.8-.8-2.1-.8-2.9 0-.6.6-.8 1.6-.4 2.4l-4.9 4.9c-.8-.3-1.7-.2-2.3.4-.4.4-.6.9-.6 1.5s.2 1.1.6 1.5c.4.4.9.6 1.5.6s1.1-.2 1.5-.6c.4-.4.6-.9.6-1.5 0-.3-.1-.6-.2-.9l4.9-4.9c.3.1.6.2.9.2.3 0 .6-.1.9-.2l4.9 4.9c-.1.3-.2.6-.2.9 0 .6.2 1.1.6 1.5.4.4.9.6 1.5.6s1.1-.2 1.5-.6c.4-.4.6-.9.6-1.5 0-.3-.1-.6-.2-.9l4.9-4.9c.3.1.6.2.9.2.6 0 1.1-.2 1.5-.6.5-.8.5-2.2-.3-3zM7.9 19.8c-.3.3-.7.3-1 0-.1-.1-.2-.3-.2-.5s.1-.4.2-.5c.1-.1.3-.2.5-.2s.4.1.5.2c.1.2.2.4.2.5 0 .2-.1.4-.2.5zm6.7-7.6c-.3-.3-.3-.7 0-1 .1-.1.3-.2.5-.2s.4.1.5.2c.3.3.3.7 0 1-.3.2-.8.2-1 0zm8.6 7.6c-.3.3-.7.3-1 0-.1-.1-.2-.3-.2-.5s.1-.4.2-.5c.1-.1.3-.2.5-.2s.4.1.5.2c.1.1.2.3.2.5s-.1.4-.2.5zm7.7-7.6c-.3.3-.7.3-1 0-.3-.3-.3-.7 0-1 .1-.1.3-.2.5-.2s.4.1.5.2c.2.3.2.7 0 1z"/><path class="st0" d="M27.3 28.3h-1.4v2.1h-3.8v-2.1h-1.4v2.1h-3.8v-2.1h-1.4v2.1h-3.8v-2.1h-1.4v2.1H6.6v-2.1H5.2v2.1H1.4v-3.8h2.1v-1.4H1.4v-3.8h2.1V20H1.4v-3.8h2.1v-1.4H1.4V11h2.1V9.7H1.4V5.9h2.1V4.5H1.4V0H0v31c0 .4.3.7.7.7h31.1v-1.4h-4.5v-2z"/></svg>