<svg id="Vrstva_1" xmlns="http://www.w3.org/2000/svg" viewBox="0 0 18.2 32.9"><style>.st0{fill:#1d1d1b}</style><path class="st0" d="M17 11.8L10.4 6c-.4-.3-.8-.5-1.3-.5s-.9.2-1.3.5L5.5 8c-.2-.5-.2-1-.2-1.5 0-1.3.4-2.6 1.2-3.5.7-.9 1.7-1.4 2.6-1.4 2.1 0 3.8 2.2 3.8 4.9 0 .4.4.8.8.8s.8-.4.8-.8c0-3.6-2.4-6.5-5.4-6.5-1.5 0-2.9.7-3.9 2-1 1.2-1.5 2.8-1.5 4.5 0 1 .2 1.9.5 2.7l-2.9 2.6c-.7.6-1.2 1.6-1.2 2.6v14.5c0 2.2 1.8 4.1 4.1 4.1h10c2.2 0 4.1-1.8 4.1-4.1V14.3c-.2-.9-.6-1.9-1.3-2.5zm-.5 17.1c0 1.4-1.1 2.4-2.4 2.4h-10c-1.4 0-2.4-1.1-2.4-2.4V14.3c0-.5.2-1 .6-1.3L5 10.7l.2.3c1 1.3 2.4 2 3.9 2 .4 0 .8-.4.8-.8s-.4-.8-.8-.8c-1 0-1.9-.5-2.6-1.4-.2-.2-.3-.3-.3-.4l2.7-2.4c.1-.1.1-.1.2-.1s.1 0 .2.1l6.6 5.8c.4.3.6.8.6 1.3v14.6zm0 0"/><path class="st0" d="M9.3 27.6c0 .4-.3.7-.7.7-.3 0-.5-.1-.6-.3l-1.8-2.6-.5.8v1.4c0 .4-.3.7-.7.7-.4 0-.7-.3-.7-.7v-6c0-.4.3-.7.7-.7.4 0 .7.3.7.7v2.7l2.2-3.1c.1-.2.3-.4.5-.4.4 0 .7.3.7.7 0 .1 0 .3-.1.4l-1.8 2.5 2 2.8c.1.1.1.3.1.4zm3.1-4.8c.5 0 1 .2 1.3.4.2.1.3.3.3.5 0 .3-.3.6-.6.6-.1 0-.2 0-.3-.1-.2-.2-.3-.2-.6-.2-.8 0-1.2.7-1.2 1.6 0 .9.5 1.6 1.2 1.6.2 0 .4-.1.6-.2.1-.1.2-.1.3-.1.3 0 .6.3.6.6 0 .2-.1.4-.3.5-.3.2-.7.4-1.3.4-1.5 0-2.4-1.2-2.4-2.8 0-1.6.9-2.8 2.4-2.8zm1.2-2.2c0 .1 0 .1-.1.2l-.5.8c-.1.2-.3.3-.5.3h-.4c-.2 0-.5-.1-.6-.3l-.4-.8c0-.1-.1-.1-.1-.2 0-.2.2-.4.4-.4.1 0 .2 0 .3.1l.6.9.6-.9c.1-.1.2-.1.3-.1.2.1.4.2.4.4z"/></svg>