<svg id="Vrstva_1" xmlns="http://www.w3.org/2000/svg" viewBox="0 0 27.1 31.6"><style>.st0{fill:#1d1d1b}</style><path class="st0" d="M19.3 18.1l-.8-1.7c-.1-.2-.2-.3-.4-.3h-.4v-.6c1.5-1.3 2.4-3.4 2.5-5.7v-4c0-3.1-2.2-5.7-4.9-5.7h-3.7C9 .1 6.7 2.6 6.7 5.8v4.1c.1 2.2 1 4.2 2.4 5.6v.7c-.1-.1-.3-.1-.4 0-.2 0-.3.2-.4.4l-.6 1.7C3.4 18.3 0 21.8 0 26v5.8h27V26c.1-4.4-3.4-7.9-7.7-7.9zm-1 .6l-2.7 4.1-1.4-2.4 3.5-2.8.6 1.1zm-4.7 5.9l.8 5.9h-1.7l.9-5.9zm-.1-1.2c-.2 0-.5-.4-.6-1l.6-1 .6 1.1c0 .5-.3.9-.6.9zm3.1-6.4l-3.1 2.5-3.2-2.5v-.7c1 .6 2 .9 3.2.9 1.1 0 2.2-.3 3.1-.9v.7zM11.7 1.2h3.7c2.1 0 3.8 2 3.8 4.5-3 .3-6-1-7.9-3.5h-.7v.1C9.9 4.1 9 5.5 7.9 6.6v-.8c0-2.6 1.7-4.6 3.8-4.6zM7.9 8.1c1.4-1 2.5-2.5 3.2-4.3C13 5.8 15.5 7 18.2 7c.3 0 .7 0 1-.1v2.4c0 3.7-2.5 6.7-5.6 6.7C10.5 16 8 13 8 9.3V8.1zm1.3 9.5l3.6 2.8-1.4 2.4-2.7-4 .5-1.2zm-8.1 8.2c0-3.6 2.9-6.6 6.5-6.6l3.3 5c.1.2.3.3.5.3s.4-.1.5-.3l.2-.4c.1.1.2.2.2.3l-.9 6.4H5.6v-4.1c0-.3-.3-.6-.6-.6s-.6.3-.6.6v4.1H1.1v-4.7zm24.8 4.7h-3.3v-4.1c0-.3-.3-.6-.6-.6s-.6.3-.6.6v4.1h-5.9l-.8-6.5.2-.2.2.4c.1.2.3.3.5.3s.4-.1.5-.3l3.2-5c3.6 0 6.6 2.9 6.6 6.6v4.7z"/></svg>